<?xml version="1.0" encoding="UTF-8" standalone="no"?>
<!DOCTYPE svg  PUBLIC '-//W3C//DTD SVG 1.1//EN'  'http://www.w3.org/Graphics/SVG/1.1/DTD/svg11.dtd'>
<svg xmlns="http://www.w3.org/2000/svg">
<defs>
<font id="Plantin-Regular" horiz-adv-x="683">
<font-face underline-position="-103" font-weight="400" descent="-410" panose-1="2 4 5 3 6 2 1 2 2 3" units-per-em="2048" unicode-range="U+0020-F003" bbox="-281 -442 2073 1819" x-height="922" underline-thickness="102" font-family="Plantin" ascent="1638" cap-height="1397"/>
<missing-glyph horiz-adv-x="2048"/>
<glyph glyph-name=".notdef" horiz-adv-x="2048"/>
<glyph glyph-name=".null" horiz-adv-x="0"/>
<glyph glyph-name="nonmarkingreturn" horiz-adv-x="2048"/>
<glyph glyph-name="space" horiz-adv-x="565" unicode=" "/>
<glyph glyph-name="exclam" horiz-adv-x="597" unicode="!" d="M174 103q0 52 37 89t90 37q52 0 89 -37t37 -89q0 -53 -37 -90t-89 -37q-54 0 -90.5 38t-36.5 89zM258 1421h90q69 0 69 -69q0 -8 -1 -17l-70 -910q-4 -45 -31 -45h-32q-22 0 -25 39l-70 910q-1 8 -1 17q0 75 71 75z"/>
<glyph glyph-name="quotedbl" horiz-adv-x="832" unicode='&quot;' d="M576 803l-54 292q-24 128 -24 171q0 121 103 121q47 0 73 -31.5t26 -78.5q0 -82 -19 -181l-57 -293h-48zM210 803l-55 296q-22 122 -22 166q0 122 98 122q41 0 71.5 -28.5t30.5 -82.5q0 -38 -26 -178l-54 -295h-43z"/>
<glyph glyph-name="numbersign" horiz-adv-x="1024" unicode="#" d="M308 509h339l72 343h-341zM115 -28l93 455h-171v82h187l69 343h-256v80h275l91 455h83l-91 -455h337l97 455h83l-95 -455h170v-80h-185l-70 -343h255v-82h-272l-93 -455h-81l91 455h-339l-95 -455h-83z"/>
<glyph glyph-name="dollar" horiz-adv-x="1131" unicode="$" d="M728 522v-439q161 76 161 226q0 135 -161 213zM452 625v-546q62 -17 143 -17q29 0 58 3v490q-182 61 -201 70zM376 860v348q-119 -52 -119 -169q0 -115 119 -179zM452 1231v-404q39 -16 201 -70v472q-43 16 -95 16q-56 0 -106 -14zM452 1321q51 9 96 9q55 0 105 -9v76h75 v-93q113 -31 182 -96.5t69 -126.5q0 -31 -19.5 -55t-49.5 -24q-81 0 -125 107q-29 68 -57 84v-462q108 -32 197.5 -125.5t89.5 -237.5q0 -126 -77 -229t-210 -141v-230h-75v215q-42 -5 -86 -5q-54 0 -115 8v-218h-76v235q-123 36 -193.5 104t-70.5 126q0 33 26 63.5t66 30.5 t62.5 -25t46.5 -93q24 -67 63 -96v544q-245 110 -245 329q0 233 245 316v95h76v-76z"/>
<glyph glyph-name="percent" horiz-adv-x="1792" unicode="%" d="M1280 314q0 -168 34.5 -246t111.5 -78q73 0 109 76t36 228q0 175 -38 246t-111 71q-71 0 -106.5 -74t-35.5 -223zM1126 310q0 139 82.5 246.5t217.5 107.5q131 0 215.5 -104.5t84.5 -257.5q0 -156 -85 -260.5t-212 -104.5q-131 0 -217 98.5t-86 274.5zM472 -68h-108 l949 1489h103zM214 1071q0 -168 34.5 -246t112.5 -78q73 0 109 76.5t36 228.5q0 174 -38 245t-111 71q-71 0 -107 -74t-36 -223zM60 1067q0 139 82.5 246.5t217.5 107.5q132 0 216 -104t84 -258t-83.5 -259.5t-213.5 -105.5q-141 0 -222 105.5t-81 267.5z"/>
<glyph glyph-name="ampersand" horiz-adv-x="1536" unicode="&amp;" d="M503 765q-235 -162 -235 -311q0 -113 108.5 -219t249.5 -106q142 0 267 116q-213 359 -390 520zM625 943q177 102 177 201q0 53 -56 119.5t-110 66.5q-62 0 -124.5 -48t-62.5 -112q0 -81 176 -227zM1046 899h428v-78q-61 -9 -103.5 -44.5t-59 -60t-69.5 -122.5 q-73 -138 -155 -246q117 -146 169.5 -183t122.5 -54q93 -22 93 -81q0 -52 -89 -52h-71q-238 0 -371 200q-215 -203 -434 -203q-209 0 -322 115.5t-113 263.5q0 122 86.5 224t290.5 243q-151 161 -151 279q0 112 142.5 222.5t253.5 110.5q102 0 182 -93.5t80 -171.5 q0 -61 -51 -120.5t-222 -164.5q120 -102 352 -459q139 195 139 282q0 38 -34 71.5t-94 43.5v78z"/>
<glyph glyph-name="quotesingle" horiz-adv-x="363" unicode="&apos;" d="M158 803l-54 296q-23 124 -23 159q0 129 97 129q46 0 75 -30t29 -80q0 -35 -26 -179l-54 -295h-44z"/>
<glyph glyph-name="parenleft" horiz-adv-x="789" unicode="(" d="M694 1426l65 -82q-268 -215 -352 -409.5t-84 -424.5q0 -290 122.5 -492.5t313.5 -319.5l-65 -77q-242 143 -370.5 375t-128.5 521q0 287 123.5 503t375.5 406z"/>
<glyph glyph-name="parenright" horiz-adv-x="789" unicode=")" d="M96 -379l-65 82q268 215 352 409.5t84 424.5q0 279 -119.5 486t-316.5 326l65 77q241 -143 370 -375t129 -521q0 -287 -123.5 -503t-375.5 -406z"/>
<glyph glyph-name="asterisk" horiz-adv-x="1024" unicode="*" d="M537 869l-268 -234l-44 49l175 292l-331 139l20 59l339 -4l55 322h59l76 -305l323 56l14 -58l-279 -187l169 -314l-43 -49z"/>
<glyph glyph-name="plus" horiz-adv-x="1365" unicode="+" d="M134 744h468v471h158v-471h471v-157h-471v-466h-158v466h-468v157z"/>
<glyph glyph-name="comma" horiz-adv-x="597" unicode="," d="M67 -313v75q75 0 182.5 46t107.5 164q0 60 -19 87q-19 26 -77 29q-130 8 -130 117q0 61 39 95t94 34q93 0 152.5 -89t59.5 -209q0 -336 -409 -349z"/>
<glyph glyph-name="hyphen" horiz-adv-x="747" unicode="-" d="M58 407v155h629v-155h-629z"/>
<glyph glyph-name="hyphen" horiz-adv-x="747" unicode="­" d="M58 407v155h629v-155h-629z"/>
<glyph glyph-name="period" horiz-adv-x="597" unicode="." d="M172 103q0 52 37 89t90 37q52 0 89 -37t37 -89q0 -53 -37 -90t-89 -37q-54 0 -90.5 38t-36.5 89z"/>
<glyph glyph-name="slash" horiz-adv-x="576" unicode="/" d="M616 1422l-490 -1450h-166l490 1450h166z"/>
<glyph glyph-name="zero" horiz-adv-x="1131" unicode="0" d="M294 705q0 -319 81.5 -486.5t201.5 -167.5q114 0 187 129t73 423q0 330 -76.5 501t-217.5 171q-77 0 -142 -69.5t-86 -177.5t-21 -323zM98 637q0 300 139 512t330 212q119 0 228 -78.5t173 -233t64 -346.5q0 -281 -131 -504t-342 -223q-125 0 -227.5 82.5t-168 231 t-65.5 347.5z"/>
<glyph glyph-name="one" horiz-adv-x="1131" unicode="1" d="M674 1360v-1090q0 -196 159 -196h29v-74h-581v74h38q165 0 165 196v716q0 84 -13 119t-54.5 56t-70.5 21h-59v74q201 0 328 104h59z"/>
<glyph glyph-name="two" horiz-adv-x="1131" unicode="2" d="M1032 339l-99 -339h-833v73q73 84 266 275q202 198 306.5 331t104.5 258q0 106 -68.5 189t-169.5 83q-97 0 -192 -74.5t-163 -232.5l-74 29q62 181 185 305t294 124q116 0 196.5 -52t134 -137.5t53.5 -191.5q0 -123 -61.5 -214.5t-254.5 -254.5q-298 -251 -367 -344h431 q94 0 144.5 33.5t95.5 139.5h71z"/>
<glyph glyph-name="three" horiz-adv-x="1131" unicode="3" d="M361 625l-34 66q249 146 315.5 220.5t66.5 148.5q0 75 -55.5 123t-124.5 48q-167 0 -352 -207l-59 45q206 293 471 293q136 0 222 -68.5t86 -177.5q0 -73 -46.5 -138t-190.5 -166q30 2 44 2q111 0 202.5 -90t91.5 -235q0 -203 -170.5 -358.5t-413.5 -155.5 q-202 0 -327 92l41 60q134 -67 253 -67q194 0 310.5 120.5t116.5 260.5q0 106 -67.5 182.5t-170.5 76.5q-95 0 -209 -75z"/>
<glyph glyph-name="four" horiz-adv-x="1131" unicode="4" d="M637 483v700l-475 -700h475zM832 383v-113q0 -78 11 -115t54 -59t73 -22h41v-74h-555v74h43q34 0 73.5 22t52 56t12.5 118v113h-559v119l587 858h167v-877q54 0 85.5 25.5t55.5 105.5h69l-31 -231h-179z"/>
<glyph glyph-name="five" horiz-adv-x="1131" unicode="5" d="M288 1335h503q100 0 118 25h71l-40 -190h-615l-60 -273q63 26 122 39t113 13q193 0 334 -130t141 -337q0 -211 -162 -358.5t-426 -147.5q-133 0 -265 43l29 70q111 -29 196 -29q177 0 304 116t127 281q0 135 -91.5 234.5t-246.5 99.5q-70 0 -132.5 -23.5t-118.5 -70.5 l-47 11z"/>
<glyph glyph-name="six" horiz-adv-x="1131" unicode="6" d="M333 621q-3 -50 -3 -87q0 -202 78.5 -338t196.5 -136q89 0 155.5 89.5t66.5 283.5q0 166 -65.5 267.5t-167.5 101.5q-76 0 -141 -45t-120 -136zM346 763q76 72 153.5 107.5t157.5 35.5q161 0 264 -125t103 -306q0 -196 -121 -347.5t-297 -151.5q-183 0 -328 159.5 t-145 434.5q0 325 221.5 555.5t544.5 234.5v-72q-232 -12 -376.5 -153.5t-176.5 -371.5z"/>
<glyph glyph-name="seven" horiz-adv-x="1131" unicode="7" d="M607 0h-201q0 120 43 278.5t174 428.5t247 464h-464q-94 0 -148 -38.5t-82 -141.5h-76l85 369h48q35 -25 152 -25h607v-106q-133 -194 -259 -579t-126 -650z"/>
<glyph glyph-name="eight" horiz-adv-x="1131" unicode="8" d="M490 646q-104 -49 -156.5 -124t-52.5 -176q0 -119 79.5 -207t224.5 -88q121 0 202.5 67.5t81.5 176.5q0 70 -37 129t-97.5 96.5t-208.5 108.5zM646 785q93 42 139 102.5t46 138.5q0 113 -80 181.5t-194 68.5q-108 0 -174 -62.5t-66 -141.5q0 -86 60.5 -141.5 t234.5 -130.5zM411 681q-165 91 -211.5 171t-46.5 157q0 139 120 245.5t298 106.5q167 0 287 -93.5t120 -225.5q0 -95 -63 -169t-190 -126q145 -71 217.5 -168.5t72.5 -220.5q0 -169 -123.5 -275.5t-321.5 -106.5q-203 0 -325.5 106t-122.5 248q0 91 59.5 179.5t229.5 171.5 z"/>
<glyph glyph-name="nine" horiz-adv-x="1131" unicode="9" d="M797 714q2 51 2 88q0 202 -78 337.5t-197 135.5q-89 0 -155.5 -89t-66.5 -284q0 -158 62.5 -263.5t170.5 -105.5q77 0 142.5 45.5t119.5 135.5zM784 573q-75 -71 -153 -107t-159 -36q-161 0 -263.5 125t-102.5 306q0 189 117 344t299 155q177 0 325.5 -152.5 t148.5 -442.5q0 -308 -213 -546t-552 -243v72q231 12 375.5 153.5t177.5 371.5z"/>
<glyph glyph-name="colon" horiz-adv-x="597" unicode=":" d="M172 103q0 52 37 89t90 37q52 0 89 -37t37 -89q0 -53 -37 -90t-89 -37q-54 0 -90.5 38t-36.5 89zM172 817q0 52 37 89t90 37q52 0 89 -37t37 -89q0 -53 -37 -90t-89 -37t-89.5 37t-37.5 90z"/>
<glyph glyph-name="semicolon" horiz-adv-x="597" unicode=";" d="M82 -313v75q45 0 129 26t122.5 71t38.5 113q0 60 -19 87q-19 26 -77 29q-130 8 -130 117q0 61 39 95t94 34q93 0 152.5 -88.5t59.5 -209.5q0 -336 -409 -349zM180 817q0 52 37.5 89t89.5 37t89.5 -37t37.5 -89q0 -53 -37.5 -90t-89.5 -37t-89.5 37t-37.5 90z"/>
<glyph glyph-name="less" horiz-adv-x="1365" unicode="&lt;" d="M1230 137l-1094 460v142l1094 459v-170l-881 -360l881 -360v-171z"/>
<glyph glyph-name="equal" horiz-adv-x="1365" unicode="=" d="M136 511h1094v-158h-1094v158zM136 982h1094v-157h-1094v157z"/>
<glyph glyph-name="greater" horiz-adv-x="1365" unicode="&gt;" d="M136 1198l1094 -459v-142l-1094 -460v171l881 359l-881 360v171z"/>
<glyph glyph-name="question" horiz-adv-x="789" unicode="?" d="M142 103q0 52 37 89t89 37q53 0 90 -37t37 -89q0 -53 -37.5 -90t-89.5 -37q-53 0 -89.5 38t-36.5 89zM298 349h-74q2 29 2 50q0 84 -23 198q-8 43 -8 55q0 29 18.5 41t74.5 23q150 30 229 93q79 62 79 147q0 98 -87.5 197.5t-186.5 99.5q-34 0 -91 -23q-47 -18 -72 -18 q-40 0 -64 24t-24 61q0 59 51.5 91.5t126.5 32.5q183 0 328.5 -203.5t145.5 -360.5q0 -120 -75 -188t-215 -119q-74 -26 -102.5 -64t-32.5 -137z"/>
<glyph glyph-name="at" horiz-adv-x="1877" unicode="@" d="M1057 917q-131 0 -267.5 -236.5t-136.5 -384.5q0 -57 31.5 -101t84.5 -44q95 0 207.5 121.5t159 268.5t46.5 229q0 62 -33 104.5t-92 42.5zM1408 958l-117 -399q-93 -318 -93 -378q0 -30 20 -54t56 -24q81 0 183.5 80.5t171 240.5t68.5 332q0 266 -180.5 440.5 t-467.5 174.5q-239 0 -430.5 -124t-309.5 -347t-118 -486q0 -350 220.5 -572.5t556.5 -222.5q201 0 369 77.5t273.5 203.5t167.5 272h58q-85 -273 -327 -443.5t-537 -170.5q-377 0 -626 252.5t-249 629.5q0 416 276 699t681 283q315 0 509 -194t194 -493 q0 -279 -158.5 -491.5t-391.5 -212.5q-77 0 -116 35t-39 104q0 58 18 145q-230 -285 -394 -285q-84 0 -132.5 72.5t-48.5 162.5q0 128 78.5 292t218 285.5t256.5 121.5q69 0 111.5 -34.5t58.5 -103.5l33 110z"/>
<glyph glyph-name="A" horiz-adv-x="1472" unicode="A" d="M894 656l-230 555l-221 -555h451zM585 1397h222l476 -1115q56 -129 90.5 -167t94.5 -38v-77h-574v77q88 4 131.5 42t43.5 85q0 36 -22 90l-105 250h-542l-73 -193q-22 -56 -22 -106q0 -150 173 -168v-77h-470v77q73 20 110 63t106 213l395 978z"/>
<glyph glyph-name="B" horiz-adv-x="1408" unicode="B" d="M500 686v-356q0 -98 22 -149.5t66.5 -74.5t137.5 -23h71q112 0 188.5 72t76.5 193q0 103 -51 187t-133.5 117.5t-222.5 33.5h-155zM500 780h146q205 0 284 56.5t79 189.5q0 100 -54 171.5t-138.5 96.5t-221.5 25h-95v-539zM68 1397h743q221 0 334.5 -89t113.5 -247 q0 -133 -102 -214t-306 -110q257 -28 359.5 -128.5t102.5 -234.5q0 -148 -119 -261t-412 -113h-714v77h27q45 0 94.5 20t72.5 62t23 155v769q0 111 -22.5 154.5t-75.5 63t-92 19.5h-27v77z"/>
<glyph glyph-name="C" horiz-adv-x="1600" unicode="C" d="M1467 999h-67q-64 141 -191 239.5t-293 98.5q-223 0 -380.5 -165t-157.5 -459q0 -283 157 -468t411 -185q164 0 287.5 81.5t166.5 265.5h77l-10 -321q-96 -40 -261 -75t-301 -35q-347 0 -562 200.5t-215 501.5q0 309 222.5 526t586.5 217q226 0 480 -97z"/>
<glyph glyph-name="D" horiz-adv-x="1728" unicode="D" d="M503 1315v-942q0 -113 16 -163t71 -86.5t130 -36.5h78q187 0 299 55t196 187t84 329q0 170 -60.5 301.5t-171.5 219.5t-229.5 112t-285.5 24h-127zM59 1397h720q186 0 315 -23.5t260 -118t204.5 -234t73.5 -311.5q0 -234 -130 -405.5t-296.5 -238t-448.5 -66.5h-698v77 h39q45 0 94.5 20t72 62t22.5 155v769q0 111 -22 154.5t-75 63t-92 19.5h-39v77z"/>
<glyph glyph-name="E" horiz-adv-x="1387" unicode="E" d="M52 0v77h28q46 0 95.5 20t72 62t22.5 155v770q0 111 -22.5 154.5t-75 63t-92.5 19.5h-28v76h1184v-311h-74q-58 148 -141.5 188t-258.5 40h-276v-540h273q152 0 211.5 46.5t65.5 148.5h83v-494h-83q-17 114 -76.5 161t-194.5 47h-279v-338q0 -106 26.5 -160t86 -78 t193.5 -24q192 0 294.5 62t167.5 197h93l-90 -342h-1205z"/>
<glyph glyph-name="F" horiz-adv-x="1344" unicode="F" d="M57 1397h1243v-316h-61q-58 117 -111.5 163.5t-110.5 58t-207 11.5h-307v-526h302q102 0 144.5 13t70 51t37.5 117h83v-505h-83q-23 139 -89.5 185.5t-169.5 46.5h-295v-382q0 -111 22.5 -154.5t76 -63t92.5 -19.5h55v-77h-679v77h27q46 0 95.5 20t72 62t22.5 155v769 q0 111 -22.5 154t-75.5 62.5t-92 19.5h-40v78z"/>
<glyph glyph-name="G" horiz-adv-x="1707" unicode="G" d="M1457 1329l27 -328h-83q-150 337 -481 337q-251 0 -410 -184.5t-159 -448.5q0 -269 170 -457t421 -188q166 0 340 94v251q0 111 -22.5 154t-75 62.5t-91.5 19.5h-56v77h656v-77q-39 0 -90.5 -19.5t-74 -62.5t-22.5 -154v-332q-339 -97 -587 -97q-371 0 -598.5 200 t-227.5 505q0 301 250 520.5t618 219.5q217 0 496 -92z"/>
<glyph glyph-name="H" horiz-adv-x="1749" unicode="H" d="M493 661v-347q0 -111 22.5 -154.5t75 -63t91.5 -19.5h32v-77h-652v77h26q45 0 94.5 20t72 62t22.5 155v769q0 111 -22.5 154.5t-75 63t-91.5 19.5h-26v77h652v-77h-32q-45 0 -94.5 -20t-72 -62t-22.5 -155v-316h756v316q0 111 -22 154t-74.5 63t-100.5 20v77h632v-77h-29 q-45 0 -94.5 -20t-72.5 -62t-23 -155v-769q0 -111 22.5 -154.5t75.5 -63t92 -19.5h29v-77h-632v77q55 0 104 21t71 62.5t22 153.5v347h-756z"/>
<glyph glyph-name="I" horiz-adv-x="768" unicode="I" d="M55 1397h658v-77h-29q-45 0 -95 -20t-72.5 -62t-22.5 -155v-769q0 -111 22.5 -154.5t75.5 -63t92 -19.5h29v-77h-658v77h34q45 0 94.5 20t72 62t22.5 155v769q0 111 -22.5 154.5t-75 63t-91.5 19.5h-34v77z"/>
<glyph glyph-name="J" horiz-adv-x="725" unicode="J" d="M49 1397h666v-77h-35q-45 0 -95 -20t-72.5 -62t-22.5 -155v-730q0 -203 -9.5 -310t-55 -202.5t-121.5 -143t-177 -47.5q-87 0 -149 36.5t-62 99.5q0 41 27.5 69.5t64.5 28.5q69 0 118 -85q32 -56 79 -56q41 0 55 36.5t14 171.5v1132q0 111 -22.5 154.5t-75 63t-91.5 19.5 h-36v77z"/>
<glyph glyph-name="K" horiz-adv-x="1643" unicode="K" d="M942 1397h578v-77q-112 -12 -189 -56t-240 -196q-136 -127 -343 -286q78 -59 345 -301q277 -252 382 -320t198 -78v-83h-357q-83 62 -275 244q-221 209 -409 370l-120 104q328 232 442 345.5t114 175.5q0 81 -126 81v77zM63 1397h648v-77h-25q-45 0 -94.5 -20t-72 -62 t-22.5 -155v-769q0 -111 22.5 -154.5t75 -63t91.5 -19.5h38v-77h-661v77h28q45 0 95 20t72.5 62t22.5 155v769q0 111 -22.5 154.5t-75.5 63t-92 19.5h-28v77z"/>
<glyph glyph-name="L" horiz-adv-x="1387" unicode="L" d="M46 1397h678v-77h-41q-45 0 -94.5 -20t-72 -62t-22.5 -155v-697q0 -138 26 -190t79 -82.5t163 -30.5h147q118 0 187.5 21.5t133.5 83t116 154.5h87l-87 -342h-1300v75h42q46 0 95.5 20.5t72 62t22.5 154.5v771q0 111 -22.5 154.5t-75.5 63t-92 19.5h-42v77z"/>
<glyph glyph-name="M" horiz-adv-x="2069" unicode="M" d="M206 1397h407q11 -115 48 -236.5t171 -390.5q167 -333 214 -473q21 55 83 172q169 319 256.5 531.5t87.5 320.5q0 37 -9 76h416v-77q-56 0 -108.5 -30.5t-52.5 -109.5q0 -40 8 -97l106 -769q16 -116 45 -158t85 -60.5t86 -18.5v-77h-617v77q181 0 181 175q0 25 -5 62 l-100 770q-84 -247 -279 -619q-94 -179 -131.5 -269t-66.5 -196h-98q-9 123 -244 577q-174 338 -238 538l-114 -724q-9 -58 -9 -111q0 -136 66 -169.5t125 -33.5v-77h-480v77q74 0 113 30.5t56 84.5t40 199l102 633q13 83 13 128q0 99 -48.5 130.5t-108.5 35.5v79z"/>
<glyph glyph-name="N" horiz-adv-x="1728" unicode="N" d="M9 1397h332l1047 -1061l-15 669q-4 186 -68 250t-175 64v77h550v-77q-220 0 -220 -314l13 -591q3 -136 8 -176.5t30 -167.5q11 -55 11 -87h-134q-87 120 -164 199l-850 871l17 -662q3 -126 20 -183.5t73.5 -94t133.5 -36.5h19v-77h-584v77h31q216 0 216 217l-2 97 l-10 754l-92 91q-74 72 -187 79v82z"/>
<glyph glyph-name="O" horiz-adv-x="1664" unicode="O" d="M352 732q0 -121 54 -292t176.5 -275.5t279.5 -104.5q174 0 310.5 136.5t136.5 418.5q0 299 -139 511t-377 212q-139 0 -242 -79t-151 -188.5t-48 -338.5zM108 657q0 361 215.5 563t510.5 202q207 0 375.5 -98t257.5 -271.5t89 -361.5q0 -201 -100 -366t-279.5 -257 t-374.5 -92q-214 0 -364 99t-240 241.5t-90 340.5z"/>
<glyph glyph-name="P" horiz-adv-x="1301" unicode="P" d="M493 1314v-1000q0 -111 22.5 -154.5t75.5 -63t92 -19.5h45v-77h-660v77h20q45 0 94.5 20t72 62t22.5 155v771q0 112 -22 155.5t-74.5 63t-92.5 19.5h-20v74h669q123 0 199 -14.5t152.5 -62.5t118 -123.5t41.5 -166.5q0 -179 -139 -289.5t-371 -110.5q-144 0 -144 60 q0 43 58 43q15 0 44 -1q78 0 140.5 23t112 93.5t49.5 159.5q0 125 -81 215.5t-272 90.5h-152z"/>
<glyph glyph-name="Q" horiz-adv-x="1664" unicode="Q" d="M350 801q0 -329 141.5 -534t368.5 -205q195 0 322 146.5t127 413.5q0 287 -140.5 502t-374.5 215q-189 0 -316.5 -149.5t-127.5 -388.5zM627 -2q-259 88 -389 258.5t-130 424.5q0 219 95.5 384.5t261 261t369.5 95.5q206 0 371.5 -96t258 -268t92.5 -367 q0 -252 -153 -441.5t-422 -253.5l105 -46q263 -115 551 -164v-177q-268 25 -413 73.5t-330 157.5z"/>
<glyph glyph-name="R" horiz-adv-x="1472" unicode="R" d="M498 747h110q154 0 234 20.5t128.5 81.5t48.5 165q0 99 -55 172.5t-140.5 99t-213.5 25.5h-112v-564zM498 659v-345q0 -111 22 -154.5t75 -63t92 -19.5h27v-77h-639v77q65 0 114 21t71 62.5t22 153.5v769q0 116 -22.5 156.5t-72.5 60.5t-112 20v77h603q205 0 324 -31 t193 -119.5t74 -204.5q0 -138 -96 -228t-288 -131q16 -12 36 -35q24 -29 101 -116l183 -208q107 -121 179 -181t135 -66v-77h-163q-111 0 -178.5 43.5t-192.5 201.5l-179 225q-133 168 -164 178.5t-86 10.5h-58z"/>
<glyph glyph-name="S" horiz-adv-x="1216" unicode="S" d="M114 73l-10 353h98q60 -351 376 -351q125 0 214 67t89 161q0 74 -63 141q-64 67 -269 186q-258 150 -332 240q-75 90 -75 200q0 155 131 253.5t345 98.5q211 0 427 -118v-300h-88q-16 169 -116.5 251t-238.5 82q-98 0 -177 -52.5t-79 -141.5q0 -51 26.5 -92.5t78 -81 t255.5 -156.5q240 -136 316 -235t76 -214q0 -177 -148 -283.5t-364 -106.5q-108 0 -251.5 30t-220.5 69z"/>
<glyph glyph-name="T" horiz-adv-x="1557" unicode="T" d="M46 1397h1454l30 -332h-73q-68 155 -150 202t-207 47h-217v-1000q0 -111 22.5 -154.5t75.5 -63t92 -19.5h27v-77h-654v77h32q45 0 94.5 20t72 62t22.5 155v1000h-221q-128 0 -193 -40t-161 -209h-70z"/>
<glyph glyph-name="U" horiz-adv-x="1707" unicode="U" d="M43 1397h673v-77h-23q-79 0 -126.5 -25.5t-65.5 -66t-18 -145.5v-551q0 -146 34.5 -231.5t140.5 -144t253 -58.5q157 0 257.5 60t153.5 156.5t53 300.5l-6 391q-2 145 -17 197t-69.5 84.5t-154.5 32.5v77h551v-77q-217 0 -217 -221l1 -93v-400q0 -225 -50 -347.5 t-184.5 -202.5t-362.5 -80q-166 0 -289.5 42.5t-198.5 123.5t-93 163t-18 230v548q0 111 -22.5 154.5t-75 63t-91.5 19.5h-35v77z"/>
<glyph glyph-name="V" horiz-adv-x="1451" unicode="V" d="M2 1397h560v-77q-167 -8 -167 -95q0 -45 61 -173l260 -543q15 -33 92 -223q15 42 95 231l147 351q92 218 92 301q0 132 -176 151v77h480v-77q-74 -25 -110 -56t-55 -74t-143 -359l-238 -553q-64 -150 -94 -302h-109q-25 108 -86 240l-426 923q-57 123 -87.5 152t-95.5 29 v77z"/>
<glyph glyph-name="W" horiz-adv-x="2048" unicode="W" d="M-1 1397h485v-77q-50 -9 -78.5 -41t-28.5 -70q0 -53 37 -134l188 -402q71 -152 157 -371l27 -69l200 396l-230 503q-39 84 -78.5 135t-97.5 53v77h476v-77q-94 -24 -94 -104q0 -44 24 -93l126 -253l121 234q22 43 22 93q0 101 -98 123v77h372v-77q-61 -15 -97.5 -58.5 t-93.5 -151.5l-181 -340l177 -360q38 -77 62 -144l314 725q47 110 47 174q0 138 -130 155v77h416v-77q-60 -8 -102 -59t-106 -198l-388 -891q-48 -111 -64 -196h-95q-14 62 -41 118l-215 439l-154 -300q-91 -175 -108 -257h-109q-10 68 -81 228l-405 903q-58 129 -86.5 164 t-89.5 49v77z"/>
<glyph glyph-name="X" horiz-adv-x="1600" unicode="X" d="M893 771l425 -508q100 -118 158.5 -152t119.5 -36v-75h-670v75q158 7 158 85q0 53 -41 103l-289 347l-226 -260q-86 -99 -86 -160q0 -51 41.5 -83t118.5 -32v-75h-566v75q95 15 153.5 53t167.5 162l342 386l-393 472q-55 66 -116 117.5t-166 52.5v79h662v-79 q-150 -14 -150 -81q0 -42 40 -90l261 -310l210 253q58 70 58 119q0 96 -142 109v79h528v-79q-100 -12 -185.5 -86t-154.5 -155z"/>
<glyph glyph-name="Y" horiz-adv-x="1472" unicode="Y" d="M843 585v-271q0 -116 22.5 -156.5t72.5 -60.5t110 -20v-77h-630v77h19q46 0 95.5 20t72 62t22.5 155v271l-402 588q-56 82 -94.5 110t-117.5 37v77h614v-77q-90 -6 -123.5 -24t-33.5 -60q0 -47 28 -88l312 -453l228 334q66 95 66 157q0 121 -155 134v77h505v-77 q-49 -5 -94.5 -35.5t-140.5 -165.5z"/>
<glyph glyph-name="Z" horiz-adv-x="1387" unicode="Z" d="M1319 362l-93 -362h-1177v59l934 1255h-415q-131 0 -207 -45t-135 -190h-75v318h1119v-56l-942 -1258h407q181 0 273.5 45t178.5 161l53 73h79z"/>
<glyph glyph-name="bracketleft" horiz-adv-x="768" unicode="[" d="M735 -295v-79h-425q-23 54 -23 167v1461q0 113 23 167h425v-79h-87q-120 0 -155 -31.5t-35 -127.5v-1319q0 -91 32 -125t158 -34h87z"/>
<glyph glyph-name="backslash" horiz-adv-x="576" unicode="\" d="M126 1422l490 -1450h-166l-490 1450h166z"/>
<glyph glyph-name="bracketright" horiz-adv-x="768" unicode="]" d="M33 -295h88q119 0 154 31.5t35 127.5v1319q0 91 -32 125t-157 34h-88v79h425q23 -54 23 -167v-1461q0 -113 -23 -167h-425v79z"/>
<glyph glyph-name="asciicircum" horiz-adv-x="960" unicode="^" d="M32 666l411 718h82l404 -718h-159l-295 512l-290 -512h-153z"/>
<glyph glyph-name="underscore" horiz-adv-x="1024" unicode="_" d="M-12 -154h1048v-102h-1048v102z"/>
<glyph glyph-name="grave" d="M415 1126l-206 247q-11 13 -11 29q0 31 57 31h60q40 0 57.5 -13t31.5 -53l83 -241h-72z" unicode="`"/>
<glyph glyph-name="a" horiz-adv-x="981" unicode="a" d="M625 478l-108 -41q-160 -62 -202 -100t-42 -92q0 -52 37.5 -91.5t107.5 -39.5q55 0 107 26.5t100 79.5v258zM625 555v94q0 76 -12 111t-61.5 67t-115.5 32q-61 0 -109 -31.5t-48 -66.5q0 -18 36 -82q11 -19 11 -31q0 -20 -16 -27l-106 -49q-11 -5 -16 -5q-15 0 -41 54 t-26 83q0 79 92 159t292 80q123 0 191.5 -37.5t84 -87.5t15.5 -166v-380q0 -96 9.5 -121.5t41.5 -25.5q29 0 64 23l18 -72q-85 -98 -166 -98q-121 0 -138 146q-80 -73 -155.5 -109.5t-146.5 -36.5q-106 0 -168.5 65.5t-62.5 153.5q0 85 62.5 151.5t251.5 131.5z"/>
<glyph glyph-name="b" horiz-adv-x="1152" unicode="b" d="M333 686v-260q0 -145 17.5 -203.5t84 -109.5t169.5 -51q140 0 214 104t74 237q0 146 -87 269.5t-227 123.5q-72 0 -133.5 -27.5t-111.5 -82.5zM333 1424v-644q81 82 165.5 123t173.5 41q186 0 289 -143t103 -324q0 -220 -145 -359.5t-370 -139.5q-85 0 -182 25.5 t-206 75.5v1115l-145 86v31l295 113h22z"/>
<glyph glyph-name="c" horiz-adv-x="960" unicode="c" d="M854 270l47 -30q-29 -112 -128 -187t-247 -75q-211 0 -323 145.5t-112 329.5q0 185 119 338.5t365 153.5q134 0 227.5 -44.5t93.5 -139.5q0 -99 -77 -99q-56 0 -97 87q-28 58 -67 85q-39 26 -116 26q-130 0 -207 -94t-77 -237q0 -152 92.5 -271t247.5 -119q174 0 259 131 z"/>
<glyph glyph-name="d" horiz-adv-x="1173" unicode="d" d="M810 232v272q0 191 -84.5 273t-186.5 82q-128 0 -205.5 -105.5t-77.5 -231.5q0 -151 82 -279.5t230 -128.5q75 0 135.5 29.5t106.5 88.5zM981 1424v-1162q0 -92 16 -123.5t65 -31.5q22 0 67 9v-81l-278 -57h-41v152q-82 -76 -168 -114t-175 -38q-158 0 -271 125t-113 314 q0 205 143 365.5t355 160.5q47 0 104 -9.5t125 -28.5v310l-151 87v34l281 88h41z"/>
<glyph glyph-name="e" horiz-adv-x="960" unicode="e" d="M681 640q-29 229 -203 229q-86 0 -148 -61.5t-76 -167.5h427zM243 568q1 -124 36.5 -214.5t119 -153.5t198.5 -63q145 0 256 103l42 -39q-138 -223 -381 -223q-198 0 -311.5 141t-113.5 331q0 194 117.5 343.5t310.5 149.5q168 0 270 -114.5t108 -260.5h-652z"/>
<glyph glyph-name="f" horiz-adv-x="640" unicode="f" d="M388 832v-562q0 -117 37.5 -156.5t149.5 -39.5h26v-74h-552v74h30q34 0 73.5 22t52 56t12.5 118v562h-168v90h47q75 0 93.5 15t21.5 67q13 232 130 331q116 98 268 98q103 0 166.5 -44t63.5 -109q0 -43 -27 -64.5t-63 -21.5q-50 0 -95 59q-71 93 -122 93 q-67 0 -105.5 -58.5t-38.5 -157.5v-208h245v-90h-245z"/>
<glyph glyph-name="g" horiz-adv-x="1024" unicode="g" d="M296 -6q-69 -70 -81 -96t-12 -49q0 -67 90 -102t195 -35q139 0 251.5 41t112.5 117q0 109 -244 109l-117 -1q-88 0 -195 16zM292 646q0 -127 55.5 -203.5t144.5 -76.5q83 0 132 58.5t49 168.5q0 131 -67 198.5t-137 67.5q-80 0 -128.5 -67t-48.5 -146zM278 335 q-84 49 -126 118t-42 157q0 141 104 238t256 97q57 0 149 -20q196 -42 307 -42q48 0 94 5l-9 -139q-44 -4 -69 -4q-53 0 -123 16q32 -70 32 -143q0 -158 -121 -244.5t-257 -86.5q-46 0 -130 19q-32 -25 -48 -45t-16 -34q0 -36 42.5 -50.5t207.5 -14.5q176 0 261.5 -15.5 t140.5 -70t55 -129.5q0 -145 -151 -242.5t-386 -97.5q-187 0 -292.5 59.5t-105.5 128.5q0 42 44 96t131 120q-118 50 -118 115q0 35 42.5 87.5t127.5 121.5z"/>
<glyph glyph-name="h" horiz-adv-x="1152" unicode="h" d="M349 1424v-634q83 77 167 115.5t169 38.5q147 0 216 -82q69 -83 69 -280v-312q0 -91 14.5 -124t56.5 -52.5t78 -19.5v-74h-476v74q46 0 86.5 19.5t54.5 54.5t14 122v298q0 120 -50 180t-150 60q-66 0 -128 -24t-121 -72v-442q0 -85 13 -119.5t55 -55.5t71 -21h25v-74 h-490v74q85 0 119.5 42.5t34.5 153.5v927l-154 87v40l280 100h46z"/>
<glyph glyph-name="i" horiz-adv-x="555" unicode="i" d="M381 943v-673q0 -112 33 -154t94 -42v-74h-448v74q47 0 86 22.5t51 56.5t12 117v448l-156 83v38l278 104h50zM176 1312q0 45 32.5 78.5t78.5 33.5t78 -33t32 -79t-32.5 -79t-77.5 -33q-47 0 -79 33.5t-32 78.5z"/>
<glyph glyph-name="j" horiz-adv-x="533" unicode="j" d="M360 943v-815q0 -132 -22.5 -193t-116.5 -167l-143 -160l-69 45l68 108q68 108 90 183.5t22 196.5v572l-164 91v34l292 105h43zM154 1312q0 44 31 78t78 34q46 0 77.5 -33.5t31.5 -78.5q0 -46 -32 -79t-77 -33q-44 0 -76.5 33.5t-32.5 78.5z"/>
<glyph glyph-name="k" horiz-adv-x="1045" unicode="k" d="M544 536l506 -449v-87h-157q-62 40 -111 87l-406 397l194 179q69 64 69 107q0 78 -138 78v74h507v-74q-107 -5 -249 -127zM368 1424v-1154q0 -91 15 -124.5t56.5 -52.5t78.5 -19v-74h-452v74q59 0 94.5 41.5t35.5 154.5v936l-130 73v49l250 96h52z"/>
<glyph glyph-name="l" horiz-adv-x="555" unicode="l" d="M367 1424v-1154q0 -72 9.5 -111t47 -62t71.5 -23v-74h-440v74q39 0 77 22t51 55t13 119v935l-141 78v44l270 97h42z"/>
<glyph glyph-name="m" horiz-adv-x="1771" unicode="m" d="M366 705v-435q0 -88 14 -122t55.5 -54t75.5 -20v-74h-467v74q45 0 85 21t53 55.5t13 119.5v444l-146 98v30l268 101h46v-154q81 78 167.5 116.5t177.5 38.5q98 0 163 -38.5t96 -116.5q81 79 164 118t167 39t145.5 -27t92 -69t39 -83.5t8.5 -136.5v-358q0 -87 14 -121 t56 -54.5t72 -20.5v-74h-468v74q45 0 85.5 19t55 53.5t14.5 123.5v323q0 77 -16.5 119t-68 69t-115.5 27q-54 0 -114 -23t-125 -70v-445q0 -73 10 -111t52 -61.5t82 -23.5v-74h-481v74h28q34 0 73.5 22t52 56.5t12.5 117.5v327q0 136 -54.5 172.5t-133.5 36.5 q-69 0 -131 -25.5t-117 -77.5z"/>
<glyph glyph-name="n" horiz-adv-x="1173" unicode="n" d="M360 686v-416q0 -79 11 -115.5t54 -58.5t73 -22h29v-74h-490v74q45 0 85 20.5t53 55t13 120.5v452l-139 80v46l274 95h37v-173q73 87 161 130.5t190 43.5q104 0 175 -53.5t88 -128t17 -198.5v-294q0 -90 14.5 -123.5t56 -53t77.5 -19.5v-74h-485v74h27q35 0 74.5 22 t51.5 56.5t12 117.5v275q0 162 -57 212.5t-133 50.5q-62 0 -129.5 -30.5t-139.5 -91.5z"/>
<glyph glyph-name="o" horiz-adv-x="1109" unicode="o" d="M525 869q-112 0 -177 -78t-65 -247q0 -173 78.5 -332t225.5 -159q99 0 175.5 72t76.5 220q0 206 -81.5 365t-232.5 159zM88 482q0 181 132 322t328 141q200 0 337.5 -128.5t137.5 -347.5q0 -208 -133.5 -349.5t-328.5 -141.5q-205 0 -339 152t-134 352z"/>
<glyph glyph-name="p" horiz-adv-x="1152" unicode="p" d="M347 707v-306q0 -116 21.5 -182t84.5 -111t152 -45q122 0 201 87.5t79 259.5q0 194 -90.5 292.5t-205.5 98.5q-60 0 -120.5 -23.5t-121.5 -70.5zM347 36v-158q0 -86 14 -123t54 -55t70 -18h37v-74h-497v74q84 0 117.5 42t33.5 154v843l-145 84v34l265 105h51v-153 q74 77 157.5 115t176.5 38q178 0 278.5 -128t100.5 -306q0 -194 -128 -363t-346 -169q-61 0 -120.5 14.5t-118.5 43.5z"/>
<glyph glyph-name="q" horiz-adv-x="1152" unicode="q" d="M810 228v303q0 168 -76 253t-200 85q-117 0 -204 -88t-87 -254q0 -168 92.5 -284t230.5 -116q52 0 113 25.5t131 75.5zM810 136q-109 -93 -180 -126t-151 -33q-177 0 -288 124t-111 321q0 235 140.5 379t353.5 144q91 0 173 -21.5t156 -65.5v71q0 14 15 14h49 q14 0 14 -14v-1052q0 -89 15 -122.5t59 -53t67 -19.5v-74h-483v74h33q34 0 73.5 21.5t52 56t12.5 117.5v259z"/>
<glyph glyph-name="r" horiz-adv-x="768" unicode="r" d="M370 631v-361q0 -112 35 -154t139 -42h33v-74h-533v74q85 0 119.5 42.5t34.5 153.5v442l-154 80v36l284 115h42v-201q86 135 141.5 163.5t105.5 28.5q61 0 110 -40t49 -75q0 -32 -27 -82.5t-59 -50.5q-37 0 -83 54q-34 41 -72 41t-73 -32.5t-92 -117.5z"/>
<glyph glyph-name="s" horiz-adv-x="811" unicode="s" d="M675 856v-220h-64q-21 117 -74 175t-138 58q-68 0 -111 -35t-43 -102q0 -59 45 -95t213 -112q137 -61 187 -118q49 -58 49 -163q0 -124 -85.5 -195t-227.5 -71q-169 0 -298 65v258h68q31 -248 218 -248q74 0 129.5 38.5t55.5 107.5q0 50 -35 89q-36 39 -146 89 q-188 84 -254 149q-67 64 -67 164q0 112 83.5 183t216.5 71q83 0 152.5 -22t125.5 -66z"/>
<glyph glyph-name="t" d="M365 819v-572q0 -88 25.5 -116.5t114.5 -28.5q80 0 150 11v-100q-202 -35 -264 -35q-113 0 -155 46.5t-42 132.5v662h-154v56q70 22 146.5 91.5t109.5 119.5h69v-164h278v-103h-278z" unicode="t"/>
<glyph glyph-name="u" horiz-adv-x="1173" unicode="u" d="M983 922v-670q0 -91 14 -119t60 -28q18 0 66 9v-80l-311 -56v158q-84 -79 -170 -118.5t-174 -39.5q-84 0 -142.5 28t-88 72.5t-37.5 89t-8 147.5v314q0 128 -31.5 162t-131.5 34v74l335 23v-521q0 -106 12 -157.5t58 -86.5t115 -35q66 0 131.5 27t131.5 80v400 q0 121 -29 158.5t-119 37.5h-29v74z"/>
<glyph glyph-name="v" horiz-adv-x="981" unicode="v" d="M506 -22h-65l-314 765q-16 40 -39 69.5t-84 35.5v74h431v-74q-129 -7 -129 -75q0 -32 14 -64l210 -493l196 447q19 42 19 75q0 100 -128 110v74h361v-74q-50 -8 -78.5 -32.5t-69.5 -116.5z"/>
<glyph glyph-name="w" horiz-adv-x="1493" unicode="w" d="M759 561l-258 -583h-70l-297 738q-26 64 -46 93.5t-62 38.5v74h376v-74q-102 -5 -102 -73q0 -42 18 -83l200 -479l204 452l-30 76q-27 70 -57.5 88.5t-89.5 18.5v74h446v-74q-120 -11 -120 -80q0 -42 19 -91l180 -451l186 450q16 37 16 78q0 92 -122 94v74h336v-74 q-58 -11 -79 -35.5t-58 -113.5l-298 -721h-67z"/>
<glyph glyph-name="x" horiz-adv-x="1024" unicode="x" d="M594 505l288 -332q83 -95 127 -99v-74h-457v74q111 14 111 66q0 29 -39 74l-149 169l-112 -121q-62 -66 -62 -112q0 -30 28.5 -53t85.5 -23v-74h-392v74q76 14 174 120l229 247l-290 341q-32 37 -52 50.5t-61 15.5v74h423v-74q-86 -15 -86 -47q0 -29 26 -59l151 -178 l133 147q28 31 28 65q0 72 -98 72v74h377v-74q-66 -14 -103 -41.5t-132 -134.5z"/>
<glyph glyph-name="y" horiz-adv-x="981" unicode="y" d="M477 -11l-327 739q-35 79 -63.5 99.5t-82.5 20.5v74h446v-74q-123 -3 -123 -76q0 -28 21 -75l213 -489l177 449q18 45 18 81q0 102 -131 110v74h354v-74q-60 -10 -89 -48t-79 -171l-316 -802q-87 -220 -269 -220q-75 0 -119.5 33.5t-44.5 84.5q0 38 27.5 61t60.5 23 q34 0 70 -31q41 -34 75 -34q95 0 155 168z"/>
<glyph glyph-name="z" horiz-adv-x="896" unicode="z" d="M823 0h-785v32l599 817h-215q-86 0 -150 -31t-124 -114h-57v253h44q28 -35 144 -35h524q29 0 36.5 -5.5t7.5 -23.5v-44l-579 -777h145q164 0 244.5 42t136.5 177h73z"/>
<glyph glyph-name="braceleft" horiz-adv-x="981" unicode="{" d="M210 471v39q100 16 163.5 75t63.5 135q0 52 -24 151q-23 92 -23 160q0 147 109.5 259t268.5 131v-38q-118 -18 -175.5 -88t-57.5 -151q0 -60 19 -149q21 -104 21 -169q0 -107 -78 -199t-205 -134q131 -49 207.5 -140t76.5 -198q0 -61 -22 -167q-18 -89 -18 -148 q0 -190 232 -247v-35q-160 19 -268 132t-108 257q0 67 21 156q25 104 25 152q0 72 -56.5 134t-171.5 82z"/>
<glyph glyph-name="bar" horiz-adv-x="1079" unicode="|" d="M619 1432v-1824h-159v1824h159z"/>
<glyph glyph-name="braceright" horiz-adv-x="981" unicode="}" d="M771 510v-39q-100 -16 -163.5 -75.5t-63.5 -134.5q0 -52 24 -151q23 -93 23 -161q0 -148 -110 -259.5t-268 -131.5v39q118 18 175 87.5t57 151.5q0 61 -18 149q-21 105 -21 170q0 106 78 198.5t205 134.5q-131 49 -207.5 140t-76.5 198q0 61 22 167q18 89 18 147 q0 189 -232 246v35q160 -18 268 -131.5t108 -256.5q0 -67 -21 -155q-25 -104 -25 -153q0 -72 55.5 -133t172.5 -82z"/>
<glyph glyph-name="asciitilde" horiz-adv-x="1365" unicode="~" d="M1170 829h58q-5 -155 -81 -239.5t-189 -84.5q-69 0 -139.5 25.5t-235.5 94.5q-146 61 -210 61q-147 0 -177 -179h-58q6 170 83.5 246.5t176.5 76.5q107 0 383 -119q148 -64 212 -64q73 0 121.5 49t55.5 133z"/>
<glyph glyph-name="nonbreakingspace" horiz-adv-x="565" unicode=" "/>
<glyph glyph-name="exclamdown" horiz-adv-x="597" unicode="¡" d="M344 -396h-91q-69 0 -69 70q0 8 1 17l70 910q4 45 32 45h32q21 0 25 -40l70 -909v-17q0 -76 -70 -76zM174 923q0 52 37 89.5t90 37.5q52 0 89 -37.5t37 -89.5q0 -53 -37 -90t-89 -37t-89.5 37.5t-37.5 89.5z"/>
<glyph glyph-name="cent" horiz-adv-x="1131" unicode="¢" d="M477 214l222 637q-34 9 -71 9q-146 0 -216.5 -100t-70.5 -230q0 -196 136 -316zM413 29q-115 62 -175.5 177.5t-60.5 245.5q0 196 125.5 345.5t358.5 149.5q34 0 70 -3l99 285h80l-102 -295q173 -35 173 -180q0 -37 -19.5 -62.5t-54.5 -25.5q-36 0 -56.5 19t-45.5 74 q-18 38 -39 57l-224 -644q66 -31 146 -31q88 0 156 39t96 93l48 -31q-28 -119 -136.5 -191.5t-239.5 -72.5q-70 0 -130 21l-83 -235h-79z"/>
<glyph glyph-name="sterling" horiz-adv-x="1387" unicode="£" d="M527 234q-51 -161 -123 -292q42 14 77.5 20.5t65.5 6.5q77 0 136 -28t157 -106q111 -88 174 -88q37 0 67 20t30 53q0 34 -29 75q-42 57 -42 87q0 40 28.5 70.5t67.5 30.5q40 0 73 -34.5t33 -94.5q0 -150 -101.5 -246t-221.5 -96q-61 0 -120 30.5t-150 106.5 q-67 56 -112.5 79.5t-110.5 23.5q-17 0 -34 -1.5t-35 -5.5q-120 -236 -206 -236q-33 0 -57.5 25.5t-24.5 61.5q0 106 180 206l95 332h-250l16 83h259l104 377q78 285 176.5 442.5t205 222t241.5 64.5q114 0 180.5 -41.5t66.5 -94.5q0 -36 -20.5 -70t-53.5 -34q-44 0 -108 62 q-83 78 -164 78q-67 0 -122 -51.5t-96.5 -160t-98.5 -340.5q-53 -216 -125 -454h260l-23 -83h-265z"/>
<glyph glyph-name="currency" horiz-adv-x="1024" unicode="¤" d="M513 1028q-155 0 -259 -109t-104 -254q0 -143 104 -250.5t259 -107.5q147 0 254 107.5t107 249.5q0 149 -106 256.5t-255 107.5zM794 1007l143 143l58 -57l-144 -142q103 -129 103 -281q0 -154 -103 -284l144 -145l-58 -55l-143 143q-134 -103 -272 -103 q-81 0 -168.5 30.5t-124.5 72.5l-146 -143l-56 55l144 145q-102 118 -102 279q0 164 102 286l-144 142l56 57l146 -143q50 45 131.5 73.5t152.5 28.5q161 0 281 -102z"/>
<glyph glyph-name="yen" horiz-adv-x="1472" unicode="¥" d="M611 613h-461v82h405l-326 478q-55 81 -94.5 109t-118.5 37v78h614v-78q-103 -7 -130.5 -28.5t-27.5 -55.5q0 -43 30 -87l310 -453l239 350q55 80 55 143q0 118 -154 131v78h504v-78q-51 -5 -98 -38.5t-137 -161.5l-298 -424h403v-82h-461l-20 -28v-199h481v-82h-481 q1 -104 22.5 -144.5t72 -61t110.5 -20.5v-78h-629v78h20q53 0 102.5 23.5t67 63.5t19.5 139h-480v82h480v199z"/>
<glyph glyph-name="brokenbar" horiz-adv-x="1079" unicode="¦" d="M619 229v-621h-159v621h159zM619 1432v-621h-159v621h159z"/>
<glyph glyph-name="section" horiz-adv-x="875" unicode="§" d="M659 -179q42 107 42 204q0 115 -30 233t-76.5 207.5t-147.5 255.5q-205 335 -221 454q-43 -89 -43 -224q0 -110 42 -248.5t88.5 -216t154 -237t149 -257.5t42.5 -171zM533 1424q115 0 176.5 -44t61.5 -102q0 -33 -26 -58.5t-64 -25.5q-44 0 -98 45q-115 95 -174 95 q-41 0 -71.5 -29t-30.5 -82q0 -44 31 -112.5t147 -245.5q130 -202 184.5 -304t89.5 -232.5t35 -257.5q0 -212 -109.5 -339t-323.5 -127q-126 0 -187.5 43t-61.5 98q0 38 30 62t71 24q53 0 112 -58q79 -78 147 -78q44 0 74 31.5t30 79.5q0 52 -30.5 113t-156.5 242 q-180 257 -241 423t-61 354q0 209 124 347t322 138z"/>
<glyph glyph-name="dieresis" d="M414 1269q0 40 28 70t71 30q42 0 71 -29t29 -71t-29.5 -70.5t-70.5 -28.5q-40 0 -69.5 29t-29.5 70zM70 1269q0 41 29 70.5t71 29.5q41 0 70 -29t29 -71q0 -41 -29.5 -70t-69.5 -29q-43 0 -71.5 29.5t-28.5 69.5z" unicode="¨"/>
<glyph glyph-name="copyright" horiz-adv-x="1557" unicode="©" d="M1129 1168l20 -280h-39q-72 236 -300 236q-150 0 -237 -104t-87 -287q0 -205 88.5 -308t244.5 -103q193 0 310 162l37 -19q-133 -203 -387 -203q-199 0 -329 130.5t-130 313.5q0 191 140.5 326.5t358.5 135.5q72 0 184 -37q25 -8 37 -8q33 0 49 45h40zM778 1360 q-266 0 -456.5 -189.5t-190.5 -458.5q0 -268 189.5 -458t457.5 -190q267 0 457.5 190.5t190.5 457.5q0 269 -190.5 458.5t-457.5 189.5zM778 1421q184 0 350 -92t263 -259t97 -358q0 -294 -208 -502t-502 -208t-501.5 208t-207.5 502t208.5 501.5t500.5 207.5z"/>
<glyph glyph-name="ordfeminine" horiz-adv-x="640" unicode="ª" d="M407 1080l-70 -25q-115 -40 -137 -63.5t-22 -51.5q0 -29 24 -53.5t71 -24.5q36 0 69.5 16t64.5 48v154zM407 1127v56q0 45 -7 65.5t-38.5 40.5t-77.5 20q-42 0 -72 -20t-30 -39q0 -10 13 -30q18 -30 18 -39q0 -10 -11 -15l-68 -29l-11 -3q-9 0 -26 32t-17 51q0 51 64 97 t186 46q80 0 124.5 -23t54 -53t9.5 -99v-228q0 -57 6.5 -72.5t27.5 -15.5q18 0 41 13l12 -43q-55 -59 -108 -59q-78 0 -90 88q-52 -43 -101 -65t-94 -22q-72 0 -111.5 39.5t-39.5 91.5t41 91.5t163 78.5z"/>
<glyph glyph-name="guillemotleft" horiz-adv-x="704" unicode="«" d="M523 518l105 -366h-47l-205 366l205 358h47zM231 518l187 -456h-52l-302 456l302 462h52z"/>
<glyph glyph-name="logicalnot" horiz-adv-x="1365" unicode="¬" d="M135 990h1096v-644h-157v487h-939v157z"/>
<glyph glyph-name="registered" horiz-adv-x="1557" unicode="®" d="M623 731h30q125 0 190 49t65 132q0 81 -56 136.5t-143 55.5q-43 0 -86 -16v-357zM386 1148h386q136 0 217 -62.5t81 -161.5q0 -82 -55.5 -137.5t-167.5 -84.5l209 -298q35 -49 60 -67t61 -21v-34h-184l-294 406h-76v-310q5 -25 23.5 -43.5t94.5 -18.5v-34h-367v34 q49 0 71 13t27.5 33t5.5 92v523q0 71 -4 89t-23 31.5t-65 14.5v36zM778 1360q-266 0 -456.5 -189.5t-190.5 -458.5q0 -268 189.5 -458t457.5 -190q267 0 457.5 190.5t190.5 457.5q0 269 -190.5 458.5t-457.5 189.5zM778 1421q184 0 350 -92t263 -259t97 -358 q0 -294 -208 -502t-502 -208t-501.5 208t-207.5 502t208.5 501.5t500.5 207.5z"/>
<glyph glyph-name="overscore" horiz-adv-x="1024" unicode="¯" d="M-12 1653h1048v-102h-1048v102z"/>
<glyph glyph-name="degree" horiz-adv-x="811" unicode="°" d="M405 1303q-92 0 -157.5 -65.5t-65.5 -157.5q0 -93 65 -158t158 -65t158 65.5t65 157.5t-65.5 157.5t-157.5 65.5zM405 1386q127 0 217.5 -90t90.5 -217t-90.5 -217t-217.5 -90t-217 90t-90 217q0 132 91.5 219.5t215.5 87.5z"/>
<glyph glyph-name="plusminus" horiz-adv-x="1365" unicode="±" d="M134 108h1097v-157h-1097v157zM134 916h468v470h158v-470h471v-157h-471v-469h-158v469h-468v157z"/>
<glyph glyph-name="twosuperior" d="M630 839l-64 -186h-513v45q46 46 163 146q113 96 174.5 162.5t61.5 130.5q0 48 -34.5 90.5t-96.5 42.5q-120 0 -199 -160l-65 22q96 228 296 228q116 0 177.5 -66.5t61.5 -135.5q0 -104 -145 -210q-216 -156 -251 -197h235q51 0 77.5 14.5t52.5 65.5l3 8h66z" unicode="²"/>
<glyph glyph-name="threesuperior" d="M217 967l-28 47q145 74 185.5 110t40.5 76q0 39 -30 60t-64 21q-92 0 -206 -110l-50 33q124 157 292 157q84 0 139 -37t55 -96q0 -70 -125 -146q68 0 126 -47.5t58 -126.5q0 -102 -102.5 -184.5t-254.5 -82.5q-124 0 -206 52l33 41q85 -37 154 -37q111 0 175.5 59.5 t64.5 129.5q0 47 -34.5 85.5t-93.5 38.5q-53 0 -129 -43z" unicode="³"/>
<glyph glyph-name="acute" d="M270 1126h-72l83 241q15 42 33.5 54t55.5 12h60q57 0 57 -29q0 -18 -11 -31z" unicode="´"/>
<glyph glyph-name="mu" horiz-adv-x="1024" unicode="µ" d="M118 916h164v-533q0 -170 32.5 -229t110.5 -59q59 0 117.5 33.5t117.5 100.5v687h165v-654l-1 -23l-1 -31q0 -62 20 -95t51 -33q62 0 80 124h42q-17 -232 -198 -232q-73 0 -112.5 47.5t-45.5 142.5q-77 -95 -156 -142.5t-160 -47.5q-52 0 -85.5 19t-67.5 66 q-1 -30 -1 -44q0 -79 34 -241q13 -61 13 -103t-25.5 -76.5t-68.5 -34.5q-42 0 -64.5 33t-22.5 77q0 45 29 164q34 137 34 291l-1 67v726z"/>
<glyph glyph-name="paragraph" horiz-adv-x="917" unicode="¶" d="M798 1342v-1743h-72v1743h-173v-1743h-73v1043q-286 10 -383 114.5t-97 260.5q0 174 117.5 277t332.5 103h467v-55h-119z"/>
<glyph glyph-name="middot" d="M651 820q44 0 76.5 -30.5t32.5 -77.5q0 -45 -32 -77t-77 -32q-44 0 -76 32t-32 77t32 76.5t76 31.5z" unicode="·"/>
<glyph glyph-name="cedilla" d="M257 0h80l-25 -65q107 -27 107 -129q0 -60 -50 -107.5t-168 -47.5q-20 0 -71 1v66h21q67 0 100 17t33 51q0 64 -98 67z" unicode="¸"/>
<glyph glyph-name="onesuperior" d="M417 1360v-563q0 -93 81 -93h30v-51h-367v51h35q85 0 85 93v366q0 57 -19.5 75t-50.5 18h-46v51q69 0 125 15t63 30q4 8 12 8h52z" unicode="¹"/>
<glyph glyph-name="ordmasculine" horiz-adv-x="725" unicode="º" d="M349 1314q-82 0 -123 -48t-41 -144q0 -120 55.5 -209t140.5 -89q68 0 118 48t50 125q0 111 -51.5 214t-148.5 103zM59 1082q0 107 85 192.5t214 85.5q135 0 222 -80t87 -206q0 -125 -87 -209.5t-214 -84.5q-124 0 -215.5 87t-91.5 215z"/>
<glyph glyph-name="guillemotright" horiz-adv-x="704" unicode="»" d="M192 518l-106 358h47l206 -358l-206 -366h-47zM483 518l-187 462h52l302 -462l-302 -456h-52z"/>
<glyph glyph-name="onequarter" horiz-adv-x="1856" unicode="¼" d="M421 1360v-563q0 -93 81 -93h30v-51h-367v51h35q85 0 85 93v366q0 57 -19.5 75t-50.5 18h-46v51q69 0 125 15t63 30q4 8 12 8h52zM553 -44h-109l944 1489h109zM1494 260v318l-251 -318h251zM1633 196v-52q0 -58 19 -75.5t50 -17.5h36v-51h-351v51h37q31 0 50.5 18 t19.5 75v52h-330v67l351 444h118v-447q37 1 61 66h64l-20 -130h-105z"/>
<glyph glyph-name="onehalf" horiz-adv-x="1856" unicode="½" d="M420 1360v-563q0 -93 81 -93h30v-51h-367v51h35q85 0 85 93v366q0 57 -19.5 75t-50.5 18h-46v51q69 0 125 15t63 30q4 8 12 8h52zM553 -44h-109l944 1489h109zM1736 186l-64 -186h-513v45q46 46 163 146q113 96 174.5 162.5t61.5 130.5q0 48 -34.5 90.5t-96.5 42.5 q-120 0 -199 -160l-65 22q96 228 296 228q116 0 177.5 -66.5t61.5 -135.5q0 -104 -145 -210q-216 -156 -251 -197h235q51 0 77.5 14.5t52.5 65.5l3 8h66z"/>
<glyph glyph-name="threequarters" horiz-adv-x="1856" unicode="¾" d="M218 967l-28 47q145 74 185.5 110t40.5 76q0 39 -30 60t-64 21q-92 0 -206 -110l-50 33q124 157 292 157q84 0 139 -37t55 -96q0 -70 -125 -146q68 0 126 -47.5t58 -126.5q0 -102 -102.5 -184.5t-254.5 -82.5q-124 0 -206 52l33 41q85 -37 154 -37q111 0 175.5 59.5 t64.5 129.5q0 47 -34.5 85.5t-93.5 38.5q-53 0 -129 -43zM553 -44h-109l944 1489h109zM1492 260v318l-251 -318h251zM1631 196v-52q0 -58 19 -75.5t50 -17.5h36v-51h-351v51h37q31 0 50.5 18t19.5 75v52h-330v67l351 444h118v-447q37 1 61 66h64l-20 -130h-105z"/>
<glyph glyph-name="questiondown" horiz-adv-x="789" unicode="¿" d="M491 677h74q-2 -30 -2 -51q0 -83 23 -197q8 -44 8 -56q0 -29 -18.5 -41t-74.5 -23q-150 -29 -229 -91q-79 -63 -79 -148q0 -99 88.5 -198t185.5 -99q34 0 91 22q47 19 72 19q40 0 64 -24t24 -62q0 -58 -51.5 -91t-126.5 -33q-181 0 -327.5 204.5t-146.5 360.5 q0 117 76 187q75 70 215 119q73 26 101.5 64.5t32.5 137.5zM394 923q0 50 36 88.5t91 38.5q52 0 89 -37.5t37 -89.5q0 -53 -37 -90t-89 -37t-89.5 37.5t-37.5 89.5z"/>
<glyph glyph-name="Agrave" horiz-adv-x="1472" unicode="À" d="M894 656l-230 555l-221 -555h451zM585 1397h222l476 -1115q56 -129 90.5 -167t94.5 -38v-77h-574v77q88 4 131.5 42t43.5 85q0 36 -22 90l-105 250h-542l-73 -193q-22 -56 -22 -106q0 -150 173 -168v-77h-470v77q73 20 110 63t106 213l395 978zM746 1488l-206 247 q-11 13 -11 29q0 31 57 31h60q40 0 57.5 -13t31.5 -53l83 -241h-72z"/>
<glyph glyph-name="Aacute" horiz-adv-x="1472" unicode="Á" d="M894 656l-230 555l-221 -555h451zM585 1397h222l476 -1115q56 -129 90.5 -167t94.5 -38v-77h-574v77q88 4 131.5 42t43.5 85q0 36 -22 90l-105 250h-542l-73 -193q-22 -56 -22 -106q0 -150 173 -168v-77h-470v77q73 20 110 63t106 213l395 978zM702 1488h-72l83 241 q15 42 33.5 54t55.5 12h60q57 0 57 -29q0 -18 -11 -31z"/>
<glyph glyph-name="Acircumflex" horiz-adv-x="1472" unicode="Â" d="M894 656l-230 555l-221 -555h451zM585 1397h222l476 -1115q56 -129 90.5 -167t94.5 -38v-77h-574v77q88 4 131.5 42t43.5 85q0 36 -22 90l-105 250h-542l-73 -193q-22 -56 -22 -106q0 -150 173 -168v-77h-470v77q73 20 110 63t106 213l395 978zM696 1684l-153 -191h-90 l172 307h177l186 -307h-99z"/>
<glyph glyph-name="Atilde" horiz-adv-x="1472" unicode="Ã" d="M894 656l-230 555l-221 -555h451zM585 1397h222l476 -1115q56 -129 90.5 -167t94.5 -38v-77h-574v77q88 4 131.5 42t43.5 85q0 36 -22 90l-105 250h-542l-73 -193q-22 -56 -22 -106q0 -150 173 -168v-77h-470v77q73 20 110 63t106 213l395 978zM478 1487l-61 30 q23 105 78 164t115 59q57 0 151 -56q87 -51 127 -51q72 0 117 108l55 -28q-16 -109 -69 -167t-120 -58q-58 0 -150 48q-104 55 -132 55q-63 0 -111 -104z"/>
<glyph glyph-name="Adieresis" horiz-adv-x="1472" unicode="Ä" d="M894 656l-230 555l-221 -555h451zM585 1397h222l476 -1115q56 -129 90.5 -167t94.5 -38v-77h-574v77q88 4 131.5 42t43.5 85q0 36 -22 90l-105 250h-542l-73 -193q-22 -56 -22 -106q0 -150 173 -168v-77h-470v77q73 20 110 63t106 213l395 978zM793 1622q0 40 28 70 t71 30q42 0 71 -29t29 -71t-29.5 -70.5t-70.5 -28.5q-40 0 -69.5 29t-29.5 70zM449 1622q0 41 29 70.5t71 29.5q41 0 70 -29t29 -71q0 -41 -29.5 -70t-69.5 -29q-43 0 -71.5 29.5t-28.5 69.5z"/>
<glyph glyph-name="Aring" horiz-adv-x="1472" unicode="Å" d="M894 656l-230 555l-221 -555h451zM574 1541q0 -49 36.5 -84t86.5 -35q51 0 87.5 35t36.5 84t-36 84t-88 35q-51 0 -87 -35t-36 -84zM808 1395l475 -1113q55 -128 89.5 -166.5t95.5 -38.5v-77h-574v77q174 11 174 135q0 32 -21 82l-105 250h-542l-73 -193 q-21 -55 -21 -101q0 -159 172 -173v-77h-470v77q79 21 114 64.5t102 211.5l395 978l-33 63q-73 58 -73 147q0 76 53.5 130t130.5 54q76 0 130 -54t54 -130q0 -44 -18 -80.5t-55 -65.5z"/>
<glyph glyph-name="AE" horiz-adv-x="2048" unicode="Æ" d="M859 763l-147 459l-212 -459h359zM1111 679l121 -376q48 -149 83.5 -177.5t153.5 -28.5h95q111 0 172.5 34t144.5 152l54 75h79l-76 -358h-1091v77h23q154 0 154 134q0 35 -17 90l-124 378h-424l-121 -264q-45 -97 -45 -176q0 -151 189 -162v-77h-490v77 q71 10 108.5 56.5t112.5 211.5l356 773q27 61 27 103q0 93 -137 96v80h1213l98 -312h-71q-146 158 -204 193.5t-190 35.5h-406l183 -551h296q113 0 154 27t41 102q0 30 -9 76h78l167 -486h-85q-55 93 -104 133t-95.5 52t-147.5 12h-266z"/>
<glyph glyph-name="Ccedilla" horiz-adv-x="1600" unicode="Ç" d="M937 -24l-22 -48q143 -30 143 -144q0 -67 -67.5 -119t-223.5 -52h-94v74l28 -1q89 0 133.5 19t44.5 57q0 33 -36 53.5t-95 21.5l83 142q-108 0 -286.5 68t-297.5 240.5t-119 396.5q0 317 223.5 533t585.5 216q226 0 480 -97l50 -325h-67q-64 140 -191 239t-293 99 q-221 0 -379.5 -163t-158.5 -466q0 -293 158.5 -476.5t409.5 -183.5q185 0 299 89.5t155 257.5h77l-10 -321q-98 -41 -258 -74.5t-272 -35.5z"/>
<glyph glyph-name="Egrave" horiz-adv-x="1387" unicode="È" d="M52 0v77h28q46 0 95.5 20t72 62t22.5 155v770q0 111 -22.5 154.5t-75 63t-92.5 19.5h-28v76h1184v-311h-74q-58 148 -141.5 188t-258.5 40h-276v-540h273q152 0 211.5 46.5t65.5 148.5h83v-494h-83q-17 114 -76.5 161t-194.5 47h-279v-338q0 -106 26.5 -160t86 -78 t193.5 -24q192 0 294.5 62t167.5 197h93l-90 -342h-1205zM676 1488l-206 247q-11 13 -11 29q0 31 57 31h60q40 0 57.5 -13t31.5 -53l83 -241h-72z"/>
<glyph glyph-name="Eacute" horiz-adv-x="1387" unicode="É" d="M52 0v77h28q46 0 95.5 20t72 62t22.5 155v770q0 111 -22.5 154.5t-75 63t-92.5 19.5h-28v76h1184v-311h-74q-58 148 -141.5 188t-258.5 40h-276v-540h273q152 0 211.5 46.5t65.5 148.5h83v-494h-83q-17 114 -76.5 161t-194.5 47h-279v-338q0 -106 26.5 -160t86 -78 t193.5 -24q192 0 294.5 62t167.5 197h93l-90 -342h-1205zM724 1488h-72l83 241q15 42 33.5 54t55.5 12h60q57 0 57 -29q0 -18 -11 -31z"/>
<glyph glyph-name="Ecircumflex" horiz-adv-x="1387" unicode="Ê" d="M52 0v77h28q46 0 95.5 20t72 62t22.5 155v770q0 111 -22.5 154.5t-75 63t-92.5 19.5h-28v76h1184v-311h-74q-58 148 -141.5 188t-258.5 40h-276v-540h273q152 0 211.5 46.5t65.5 148.5h83v-494h-83q-17 114 -76.5 161t-194.5 47h-279v-338q0 -106 26.5 -160t86 -78 t193.5 -24q192 0 294.5 62t167.5 197h93l-90 -342h-1205zM675 1684l-153 -191h-90l172 307h177l186 -307h-99z"/>
<glyph glyph-name="Edieresis" horiz-adv-x="1387" unicode="Ë" d="M52 0v77h28q46 0 95.5 20t72 62t22.5 155v770q0 111 -22.5 154.5t-75 63t-92.5 19.5h-28v76h1184v-311h-74q-58 148 -141.5 188t-258.5 40h-276v-540h273q152 0 211.5 46.5t65.5 148.5h83v-494h-83q-17 114 -76.5 161t-194.5 47h-279v-338q0 -106 26.5 -160t86 -78 t193.5 -24q192 0 294.5 62t167.5 197h93l-90 -342h-1205zM772 1622q0 40 28 70t71 30q42 0 71 -29t29 -71t-29.5 -70.5t-70.5 -28.5q-40 0 -69.5 29t-29.5 70zM428 1622q0 41 29 70.5t71 29.5q41 0 70 -29t29 -71q0 -41 -29.5 -70t-69.5 -29q-43 0 -71.5 29.5t-28.5 69.5z "/>
<glyph glyph-name="Igrave" horiz-adv-x="768" unicode="Ì" d="M55 1397h658v-77h-29q-45 0 -95 -20t-72.5 -62t-22.5 -155v-769q0 -111 22.5 -154.5t75.5 -63t92 -19.5h29v-77h-658v77h34q45 0 94.5 20t72 62t22.5 155v769q0 111 -22.5 154.5t-75 63t-91.5 19.5h-34v77zM421 1488l-206 247q-11 13 -11 29q0 31 57 31h60q40 0 57.5 -13 t31.5 -53l83 -241h-72z"/>
<glyph glyph-name="Iacute" horiz-adv-x="768" unicode="Í" d="M55 1397h658v-77h-29q-45 0 -95 -20t-72.5 -62t-22.5 -155v-769q0 -111 22.5 -154.5t75.5 -63t92 -19.5h29v-77h-658v77h34q45 0 94.5 20t72 62t22.5 155v769q0 111 -22.5 154.5t-75 63t-91.5 19.5h-34v77zM348 1488h-72l83 241q15 42 33.5 54t55.5 12h60q57 0 57 -29 q0 -18 -11 -31z"/>
<glyph glyph-name="Icircumflex" horiz-adv-x="768" unicode="Î" d="M55 1397h658v-77h-29q-45 0 -95 -20t-72.5 -62t-22.5 -155v-769q0 -111 22.5 -154.5t75.5 -63t92 -19.5h29v-77h-658v77h34q45 0 94.5 20t72 62t22.5 155v769q0 111 -22.5 154.5t-75 63t-91.5 19.5h-34v77zM360 1684l-153 -191h-90l172 307h177l186 -307h-99z"/>
<glyph glyph-name="Idieresis" horiz-adv-x="768" unicode="Ï" d="M55 1397h658v-77h-29q-45 0 -95 -20t-72.5 -62t-22.5 -155v-769q0 -111 22.5 -154.5t75.5 -63t92 -19.5h29v-77h-658v77h34q45 0 94.5 20t72 62t22.5 155v769q0 111 -22.5 154.5t-75 63t-91.5 19.5h-34v77zM456 1622q0 40 28 70t71 30q42 0 71 -29t29 -71t-29.5 -70.5 t-70.5 -28.5q-40 0 -69.5 29t-29.5 70zM112 1622q0 41 29 70.5t71 29.5q41 0 70 -29t29 -71q0 -41 -29.5 -70t-69.5 -29q-43 0 -71.5 29.5t-28.5 69.5z"/>
<glyph glyph-name="Eth" horiz-adv-x="1728" unicode="Ð" d="M503 683v-310q0 -113 16 -163t71 -86.5t130 -36.5h78q187 0 299 55t196 187t84 329q0 170 -60.5 301.5t-171.5 219.5t-229.5 112t-285.5 24h-127v-541h436v-91h-436zM287 683h-228v91h228v309q0 111 -22 154.5t-75 63t-92 19.5h-39v77h720q186 0 315 -23.5t260 -118 t204.5 -234t73.5 -311.5q0 -234 -130 -405.5t-296.5 -238t-448.5 -66.5h-698v77h39q45 0 94.5 20t72 62t22.5 155v369z"/>
<glyph glyph-name="Ntilde" horiz-adv-x="1728" unicode="Ñ" d="M9 1397h332l1047 -1061l-15 669q-4 186 -68 250t-175 64v77h550v-77q-220 0 -220 -314l13 -591q3 -136 8 -176.5t30 -167.5q11 -55 11 -87h-134q-87 120 -164 199l-850 871l17 -662q3 -126 20 -183.5t73.5 -94t133.5 -36.5h19v-77h-584v77h31q216 0 216 217l-2 97 l-10 754l-92 91q-74 72 -187 79v82zM624 1487l-61 30q23 105 78 164t115 59q57 0 151 -56q87 -51 127 -51q72 0 117 108l55 -28q-16 -109 -69 -167t-120 -58q-58 0 -150 48q-104 55 -132 55q-63 0 -111 -104z"/>
<glyph glyph-name="Ograve" horiz-adv-x="1664" unicode="Ò" d="M352 732q0 -121 54 -292t176.5 -275.5t279.5 -104.5q174 0 310.5 136.5t136.5 418.5q0 299 -139 511t-377 212q-139 0 -242 -79t-151 -188.5t-48 -338.5zM108 657q0 361 215.5 563t510.5 202q207 0 375.5 -98t257.5 -271.5t89 -361.5q0 -201 -100 -366t-279.5 -257 t-374.5 -92q-214 0 -364 99t-240 241.5t-90 340.5zM869 1488l-206 247q-11 13 -11 29q0 31 57 31h60q40 0 57.5 -13t31.5 -53l83 -241h-72z"/>
<glyph glyph-name="Oacute" horiz-adv-x="1664" unicode="Ó" d="M352 732q0 -121 54 -292t176.5 -275.5t279.5 -104.5q174 0 310.5 136.5t136.5 418.5q0 299 -139 511t-377 212q-139 0 -242 -79t-151 -188.5t-48 -338.5zM108 657q0 361 215.5 563t510.5 202q207 0 375.5 -98t257.5 -271.5t89 -361.5q0 -201 -100 -366t-279.5 -257 t-374.5 -92q-214 0 -364 99t-240 241.5t-90 340.5zM796 1488h-72l83 241q15 42 33.5 54t55.5 12h60q57 0 57 -29q0 -18 -11 -31z"/>
<glyph glyph-name="Ocircumflex" horiz-adv-x="1664" unicode="Ô" d="M352 732q0 -121 54 -292t176.5 -275.5t279.5 -104.5q174 0 310.5 136.5t136.5 418.5q0 299 -139 511t-377 212q-139 0 -242 -79t-151 -188.5t-48 -338.5zM108 657q0 361 215.5 563t510.5 202q207 0 375.5 -98t257.5 -271.5t89 -361.5q0 -201 -100 -366t-279.5 -257 t-374.5 -92q-214 0 -364 99t-240 241.5t-90 340.5zM808 1684l-153 -191h-90l172 307h177l186 -307h-99z"/>
<glyph glyph-name="Otilde" horiz-adv-x="1664" unicode="Õ" d="M352 732q0 -121 54 -292t176.5 -275.5t279.5 -104.5q174 0 310.5 136.5t136.5 418.5q0 299 -139 511t-377 212q-139 0 -242 -79t-151 -188.5t-48 -338.5zM108 657q0 361 215.5 563t510.5 202q207 0 375.5 -98t257.5 -271.5t89 -361.5q0 -201 -100 -366t-279.5 -257 t-374.5 -92q-214 0 -364 99t-240 241.5t-90 340.5zM571 1487l-61 30q23 105 78 164t115 59q57 0 151 -56q87 -51 127 -51q72 0 117 108l55 -28q-16 -109 -69 -167t-120 -58q-58 0 -150 48q-104 55 -132 55q-63 0 -111 -104z"/>
<glyph glyph-name="Odieresis" horiz-adv-x="1664" unicode="Ö" d="M352 732q0 -121 54 -292t176.5 -275.5t279.5 -104.5q174 0 310.5 136.5t136.5 418.5q0 299 -139 511t-377 212q-139 0 -242 -79t-151 -188.5t-48 -338.5zM108 657q0 361 215.5 563t510.5 202q207 0 375.5 -98t257.5 -271.5t89 -361.5q0 -201 -100 -366t-279.5 -257 t-374.5 -92q-214 0 -364 99t-240 241.5t-90 340.5zM905 1622q0 40 28 70t71 30q42 0 71 -29t29 -71t-29.5 -70.5t-70.5 -28.5q-40 0 -69.5 29t-29.5 70zM561 1622q0 41 29 70.5t71 29.5q41 0 70 -29t29 -71q0 -41 -29.5 -70t-69.5 -29q-43 0 -71.5 29.5t-28.5 69.5z"/>
<glyph glyph-name="multiply" horiz-adv-x="1365" unicode="×" d="M176 1064l110 111l398 -399l398 399l111 -112l-397 -398l393 -394l-111 -110l-393 393l-396 -393l-111 110l395 394z"/>
<glyph glyph-name="Oslash" horiz-adv-x="1664" unicode="Ø" d="M504 248q141 -188 358 -188q189 0 318 146t129 409q0 260 -111 466zM1148 1160q-136 178 -355 178q-180 0 -311 -142.5t-131 -410.5t105 -461zM1258 1293l131 159l69 -58l-131 -158q229 -218 229 -545q0 -312 -223.5 -513.5t-534.5 -201.5q-234 0 -409 133l-140 -168 l-63 56l138 167q-216 201 -216 515q0 330 211.5 536.5t514.5 206.5q240 0 424 -129z"/>
<glyph glyph-name="Ugrave" horiz-adv-x="1707" unicode="Ù" d="M43 1397h673v-77h-23q-79 0 -126.5 -25.5t-65.5 -66t-18 -145.5v-551q0 -146 34.5 -231.5t140.5 -144t253 -58.5q157 0 257.5 60t153.5 156.5t53 300.5l-6 391q-2 145 -17 197t-69.5 84.5t-154.5 32.5v77h551v-77q-217 0 -217 -221l1 -93v-400q0 -225 -50 -347.5 t-184.5 -202.5t-362.5 -80q-166 0 -289.5 42.5t-198.5 123.5t-93 163t-18 230v548q0 111 -22.5 154.5t-75 63t-91.5 19.5h-35v77zM898 1488l-206 247q-11 13 -11 29q0 31 57 31h60q40 0 57.5 -13t31.5 -53l83 -241h-72z"/>
<glyph glyph-name="Uacute" horiz-adv-x="1707" unicode="Ú" d="M43 1397h673v-77h-23q-79 0 -126.5 -25.5t-65.5 -66t-18 -145.5v-551q0 -146 34.5 -231.5t140.5 -144t253 -58.5q157 0 257.5 60t153.5 156.5t53 300.5l-6 391q-2 145 -17 197t-69.5 84.5t-154.5 32.5v77h551v-77q-217 0 -217 -221l1 -93v-400q0 -225 -50 -347.5 t-184.5 -202.5t-362.5 -80q-166 0 -289.5 42.5t-198.5 123.5t-93 163t-18 230v548q0 111 -22.5 154.5t-75 63t-91.5 19.5h-35v77zM934 1488h-72l83 241q15 42 33.5 54t55.5 12h60q57 0 57 -29q0 -18 -11 -31z"/>
<glyph glyph-name="Ucircumflex" horiz-adv-x="1707" unicode="Û" d="M43 1397h673v-77h-23q-79 0 -126.5 -25.5t-65.5 -66t-18 -145.5v-551q0 -146 34.5 -231.5t140.5 -144t253 -58.5q157 0 257.5 60t153.5 156.5t53 300.5l-6 391q-2 145 -17 197t-69.5 84.5t-154.5 32.5v77h551v-77q-217 0 -217 -221l1 -93v-400q0 -225 -50 -347.5 t-184.5 -202.5t-362.5 -80q-166 0 -289.5 42.5t-198.5 123.5t-93 163t-18 230v548q0 111 -22.5 154.5t-75 63t-91.5 19.5h-35v77zM885 1684l-153 -191h-90l172 307h177l186 -307h-99z"/>
<glyph glyph-name="Udieresis" horiz-adv-x="1707" unicode="Ü" d="M43 1397h673v-77h-23q-79 0 -126.5 -25.5t-65.5 -66t-18 -145.5v-551q0 -146 34.5 -231.5t140.5 -144t253 -58.5q157 0 257.5 60t153.5 156.5t53 300.5l-6 391q-2 145 -17 197t-69.5 84.5t-154.5 32.5v77h551v-77q-217 0 -217 -221l1 -93v-400q0 -225 -50 -347.5 t-184.5 -202.5t-362.5 -80q-166 0 -289.5 42.5t-198.5 123.5t-93 163t-18 230v548q0 111 -22.5 154.5t-75 63t-91.5 19.5h-35v77zM982 1622q0 40 28 70t71 30q42 0 71 -29t29 -71t-29.5 -70.5t-70.5 -28.5q-40 0 -69.5 29t-29.5 70zM638 1622q0 41 29 70.5t71 29.5 q41 0 70 -29t29 -71q0 -41 -29.5 -70t-69.5 -29q-43 0 -71.5 29.5t-28.5 69.5z"/>
<glyph glyph-name="Yacute" horiz-adv-x="1472" unicode="Ý" d="M843 585v-271q0 -116 22.5 -156.5t72.5 -60.5t110 -20v-77h-630v77h19q46 0 95.5 20t72 62t22.5 155v271l-402 588q-56 82 -94.5 110t-117.5 37v77h614v-77q-90 -6 -123.5 -24t-33.5 -60q0 -47 28 -88l312 -453l228 334q66 95 66 157q0 121 -155 134v77h505v-77 q-49 -5 -94.5 -35.5t-140.5 -165.5zM782 1488h-72l83 241q15 42 33.5 54t55.5 12h60q57 0 57 -29q0 -18 -11 -31z"/>
<glyph glyph-name="Thorn" horiz-adv-x="1301" unicode="Þ" d="M492 999v-597h145q118 0 188.5 23t122.5 94.5t52 170.5q0 133 -84.5 221t-270.5 88h-153zM492 1087h130q243 0 355.5 -26t191.5 -120.5t79 -225.5q0 -133 -81.5 -233t-205 -134t-324.5 -34h-145q2 -107 20 -149t69 -64.5t102 -22.5h44v-78h-659v78h20q45 0 94.5 20 t72 61.5t22.5 154.5v773q0 113 -22 154t-76 60t-91 19h-20v77h635v-77h-20q-191 0 -191 -197v-36z"/>
<glyph glyph-name="germandbls" horiz-adv-x="1173" unicode="ß" d="M200 811h-155v54q0 27 10 37.5t53 17.5q46 7 64.5 32t42.5 119q50 193 156 274t263 81q172 0 280.5 -83.5t108.5 -215.5q0 -191 -290 -288q192 -34 274.5 -159t82.5 -266q0 -151 -94 -289.5t-254 -138.5q-81 0 -128.5 39t-47.5 98q0 39 25 63t58 24q66 0 73 -85 q6 -72 69 -72q58 0 95.5 76.5t37.5 174.5q0 159 -86 299t-269 178v84q264 49 264 255q0 100 -71.5 161t-159.5 61q-115 0 -173 -79t-58 -273v-720q0 -69 9 -109.5t45 -63.5t62 -23v-74h-442v77q37 0 78.5 25t59 68t17.5 144v497z"/>
<glyph glyph-name="agrave" horiz-adv-x="981" unicode="à" d="M625 478l-108 -41q-160 -62 -202 -100t-42 -92q0 -52 37.5 -91.5t107.5 -39.5q55 0 107 26.5t100 79.5v258zM625 555v94q0 76 -12 111t-61.5 67t-115.5 32q-61 0 -109 -31.5t-48 -66.5q0 -18 36 -82q11 -19 11 -31q0 -20 -16 -27l-106 -49q-11 -5 -16 -5q-15 0 -41 54 t-26 83q0 79 92 159t292 80q123 0 191.5 -37.5t84 -87.5t15.5 -166v-380q0 -96 9.5 -121.5t41.5 -25.5q29 0 64 23l18 -72q-85 -98 -166 -98q-121 0 -138 146q-80 -73 -155.5 -109.5t-146.5 -36.5q-106 0 -168.5 65.5t-62.5 153.5q0 85 62.5 151.5t251.5 131.5zM414 1072 l-206 247q-11 13 -11 29q0 31 57 31h60q40 0 57.5 -13t31.5 -53l83 -241h-72z"/>
<glyph glyph-name="aacute" horiz-adv-x="981" unicode="á" d="M625 478l-108 -41q-160 -62 -202 -100t-42 -92q0 -52 37.5 -91.5t107.5 -39.5q55 0 107 26.5t100 79.5v258zM625 555v94q0 76 -12 111t-61.5 67t-115.5 32q-61 0 -109 -31.5t-48 -66.5q0 -18 36 -82q11 -19 11 -31q0 -20 -16 -27l-106 -49q-11 -5 -16 -5q-15 0 -41 54 t-26 83q0 79 92 159t292 80q123 0 191.5 -37.5t84 -87.5t15.5 -166v-380q0 -96 9.5 -121.5t41.5 -25.5q29 0 64 23l18 -72q-85 -98 -166 -98q-121 0 -138 146q-80 -73 -155.5 -109.5t-146.5 -36.5q-106 0 -168.5 65.5t-62.5 153.5q0 85 62.5 151.5t251.5 131.5zM438 1072 h-72l83 241q15 42 33.5 54t55.5 12h60q57 0 57 -29q0 -18 -11 -31z"/>
<glyph glyph-name="acircumflex" horiz-adv-x="981" unicode="â" d="M625 478l-108 -41q-160 -62 -202 -100t-42 -92q0 -52 37.5 -91.5t107.5 -39.5q55 0 107 26.5t100 79.5v258zM625 555v94q0 76 -12 111t-61.5 67t-115.5 32q-61 0 -109 -31.5t-48 -66.5q0 -18 36 -82q11 -19 11 -31q0 -20 -16 -27l-106 -49q-11 -5 -16 -5q-15 0 -41 54 t-26 83q0 79 92 159t292 80q123 0 191.5 -37.5t84 -87.5t15.5 -166v-380q0 -96 9.5 -121.5t41.5 -25.5q29 0 64 23l18 -72q-85 -98 -166 -98q-121 0 -138 146q-80 -73 -155.5 -109.5t-146.5 -36.5q-106 0 -168.5 65.5t-62.5 153.5q0 85 62.5 151.5t251.5 131.5zM468 1263 l-153 -191h-90l172 307h177l186 -307h-99z"/>
<glyph glyph-name="atilde" horiz-adv-x="981" unicode="ã" d="M625 478l-108 -41q-160 -62 -202 -100t-42 -92q0 -52 37.5 -91.5t107.5 -39.5q55 0 107 26.5t100 79.5v258zM625 555v94q0 76 -12 111t-61.5 67t-115.5 32q-61 0 -109 -31.5t-48 -66.5q0 -18 36 -82q11 -19 11 -31q0 -20 -16 -27l-106 -49q-11 -5 -16 -5q-15 0 -41 54 t-26 83q0 79 92 159t292 80q123 0 191.5 -37.5t84 -87.5t15.5 -166v-380q0 -96 9.5 -121.5t41.5 -25.5q29 0 64 23l18 -72q-85 -98 -166 -98q-121 0 -138 146q-80 -73 -155.5 -109.5t-146.5 -36.5q-106 0 -168.5 65.5t-62.5 153.5q0 85 62.5 151.5t251.5 131.5zM250 1091 l-61 30q23 105 78 164t115 59q57 0 151 -56q87 -51 127 -51q72 0 117 108l55 -28q-16 -109 -69 -167t-120 -58q-58 0 -150 48q-104 55 -132 55q-63 0 -111 -104z"/>
<glyph glyph-name="adieresis" horiz-adv-x="981" unicode="ä" d="M625 478l-108 -41q-160 -62 -202 -100t-42 -92q0 -52 37.5 -91.5t107.5 -39.5q55 0 107 26.5t100 79.5v258zM625 555v94q0 76 -12 111t-61.5 67t-115.5 32q-61 0 -109 -31.5t-48 -66.5q0 -18 36 -82q11 -19 11 -31q0 -20 -16 -27l-106 -49q-11 -5 -16 -5q-15 0 -41 54 t-26 83q0 79 92 159t292 80q123 0 191.5 -37.5t84 -87.5t15.5 -166v-380q0 -96 9.5 -121.5t41.5 -25.5q29 0 64 23l18 -72q-85 -98 -166 -98q-121 0 -138 146q-80 -73 -155.5 -109.5t-146.5 -36.5q-106 0 -168.5 65.5t-62.5 153.5q0 85 62.5 151.5t251.5 131.5zM565 1215 q0 40 28 70t71 30q42 0 71 -29t29 -71t-29.5 -70.5t-70.5 -28.5q-40 0 -69.5 29t-29.5 70zM221 1215q0 41 29 70.5t71 29.5q41 0 70 -29t29 -71q0 -41 -29.5 -70t-69.5 -29q-43 0 -71.5 29.5t-28.5 69.5z"/>
<glyph glyph-name="aring" horiz-adv-x="981" unicode="å" d="M625 478l-108 -41q-160 -62 -202 -100t-42 -92q0 -52 37.5 -91.5t107.5 -39.5q55 0 107 26.5t100 79.5v258zM625 555v94q0 76 -12 111t-61.5 67t-115.5 32q-61 0 -109 -31.5t-48 -66.5q0 -18 36 -82q11 -19 11 -31q0 -20 -16 -27l-106 -49q-11 -5 -16 -5q-15 0 -41 54 t-26 83q0 79 92 159t292 80q123 0 191.5 -37.5t84 -87.5t15.5 -166v-380q0 -96 9.5 -121.5t41.5 -25.5q29 0 64 23l18 -72q-85 -98 -166 -98q-121 0 -138 146q-80 -73 -155.5 -109.5t-146.5 -36.5q-106 0 -168.5 65.5t-62.5 153.5q0 85 62.5 151.5t251.5 131.5zM493 1321 q-43 0 -74.5 -31t-31.5 -75t31 -74.5t75 -30.5t74.5 31t30.5 74q0 44 -31 75t-74 31zM324 1215q0 70 49.5 119.5t119.5 49.5t119.5 -49.5t49.5 -119.5t-50 -119.5t-119 -49.5t-119 50t-50 119z"/>
<glyph glyph-name="ae" horiz-adv-x="1408" unicode="æ" d="M613 462q-177 -36 -271.5 -88.5t-94.5 -135.5q0 -56 43.5 -90t99.5 -34q58 0 114 27t109 80v241zM1152 649q-45 210 -185 210q-65 0 -122.5 -45t-57.5 -219v-25zM787 495v-42q0 -168 68 -235t197 -67q178 0 275 116l43 -43q-131 -246 -391 -246q-101 0 -182 43t-143 129 q-89 -86 -177.5 -129.5t-176.5 -43.5q-117 0 -172 65.5t-55 148.5q0 122 109.5 201t430.5 140v76q0 126 -39 188.5t-118 62.5q-69 0 -127.5 -30.5t-58.5 -76.5q0 -32 30 -73q17 -23 17 -32q0 -19 -21 -31l-76 -41q-16 -9 -30 -9q-44 0 -63 64.5t-19 86.5q0 97 125.5 161.5 t287.5 64.5q89 0 148.5 -30t88.5 -91q89 122 259 122q151 0 235.5 -96.5t91.5 -231.5z"/>
<glyph glyph-name="ccedilla" horiz-adv-x="960" unicode="ç" d="M565 -20l-21 -43q146 -37 146 -151q0 -81 -81 -132t-210 -51q-25 0 -57 3v72h28q83 0 124.5 18t41.5 54q0 78 -146 92l85 139q-179 16 -281.5 155t-102.5 317q0 185 119 338.5t365 153.5q151 0 236 -49t85 -135q0 -99 -77 -99q-56 0 -97 87q-28 58 -67 85q-39 26 -116 26 q-134 0 -209 -95t-75 -236q0 -158 96 -274t244 -116q174 0 259 131l47 -30q-27 -104 -116 -177.5t-220 -82.5z"/>
<glyph glyph-name="egrave" horiz-adv-x="960" unicode="è" d="M681 640q-29 229 -203 229q-86 0 -148 -61.5t-76 -167.5h427zM243 568q1 -124 36.5 -214.5t119 -153.5t198.5 -63q145 0 256 103l42 -39q-138 -223 -381 -223q-198 0 -311.5 141t-113.5 331q0 194 117.5 343.5t310.5 149.5q168 0 270 -114.5t108 -260.5h-652zM547 1072 l-206 247q-11 13 -11 29q0 31 57 31h60q40 0 57.5 -13t31.5 -53l83 -241h-72z"/>
<glyph glyph-name="eacute" horiz-adv-x="960" unicode="é" d="M681 640q-29 229 -203 229q-86 0 -148 -61.5t-76 -167.5h427zM243 568q1 -124 36.5 -214.5t119 -153.5t198.5 -63q145 0 256 103l42 -39q-138 -223 -381 -223q-198 0 -311.5 141t-113.5 331q0 194 117.5 343.5t310.5 149.5q168 0 270 -114.5t108 -260.5h-652zM444 1072 h-72l83 241q15 42 33.5 54t55.5 12h60q57 0 57 -29q0 -18 -11 -31z"/>
<glyph glyph-name="ecircumflex" horiz-adv-x="960" unicode="ê" d="M681 640q-29 229 -203 229q-86 0 -148 -61.5t-76 -167.5h427zM243 568q1 -124 36.5 -214.5t119 -153.5t198.5 -63q145 0 256 103l42 -39q-138 -223 -381 -223q-198 0 -311.5 141t-113.5 331q0 194 117.5 343.5t310.5 149.5q168 0 270 -114.5t108 -260.5h-652zM468 1263 l-153 -191h-90l172 307h177l186 -307h-99z"/>
<glyph glyph-name="edieresis" horiz-adv-x="960" unicode="ë" d="M681 640q-29 229 -203 229q-86 0 -148 -61.5t-76 -167.5h427zM243 568q1 -124 36.5 -214.5t119 -153.5t198.5 -63q145 0 256 103l42 -39q-138 -223 -381 -223q-198 0 -311.5 141t-113.5 331q0 194 117.5 343.5t310.5 149.5q168 0 270 -114.5t108 -260.5h-652zM565 1215 q0 40 28 70t71 30q42 0 71 -29t29 -71t-29.5 -70.5t-70.5 -28.5q-40 0 -69.5 29t-29.5 70zM221 1215q0 41 29 70.5t71 29.5q41 0 70 -29t29 -71q0 -41 -29.5 -70t-69.5 -29q-43 0 -71.5 29.5t-28.5 69.5z"/>
<glyph glyph-name="igrave" horiz-adv-x="555" unicode="ì" d="M464 943v-673q0 -86 14 -122t54 -55t59 -19v-74h-455v74q86 0 121 42.5t35 153.5v448l-156 83v38l278 104h50zM497 1072l-206 247q-11 13 -11 29q0 31 57 31h60q40 0 57.5 -13t31.5 -53l83 -241h-72z"/>
<glyph glyph-name="iacute" horiz-adv-x="555" unicode="í" d="M381 943v-673q0 -86 14 -122t54 -55t59 -19v-74h-455v74q86 0 121 42.5t35 153.5v448l-156 83v38l278 104h50zM269 1072h-72l83 241q15 42 33.5 54t55.5 12h60q57 0 57 -29q0 -18 -11 -31z"/>
<glyph glyph-name="icircumflex" horiz-adv-x="555" unicode="î" d="M341 943v-673q0 -86 14 -122t54 -55t59 -19v-74h-455v74q86 0 121 42.5t35 153.5v448l-156 83v38l278 104h50zM277 1263l-153 -191h-90l172 307h177l186 -307h-99z"/>
<glyph glyph-name="idieresis" horiz-adv-x="555" unicode="ï" d="M334 943v-673q0 -86 14 -122t54 -55t59 -19v-74h-455v74q86 0 121 42.5t35 153.5v448l-156 83v38l278 104h50zM366 1215q0 40 28 70t71 30q42 0 71 -29t29 -71t-29.5 -70.5t-70.5 -28.5q-40 0 -69.5 29t-29.5 70zM22 1215q0 41 29 70.5t71 29.5q41 0 70 -29t29 -71 q0 -41 -29.5 -70t-69.5 -29q-43 0 -71.5 29.5t-28.5 69.5z"/>
<glyph glyph-name="eth" horiz-adv-x="1052" unicode="ð" d="M809 352q0 204 -79 361.5t-228 157.5q-98 0 -174 -69.5t-76 -227.5q0 -210 76.5 -365t225.5 -155q108 0 181.5 79t73.5 219zM525 1297l178 118l36 -51l-157 -106q181 -114 297 -336t116 -443q0 -210 -136.5 -355t-325.5 -145q-204 0 -339 147.5t-135 338.5 q0 186 124.5 331t321.5 145q86 0 182 -52q-83 173 -238 282l-252 -170l-36 54l237 157q-89 54 -148 82l-67 32l80 89q144 -51 262 -118z"/>
<glyph glyph-name="ntilde" horiz-adv-x="1173" unicode="ñ" d="M360 686v-416q0 -79 11 -115.5t54 -58.5t73 -22h29v-74h-490v74q45 0 85 20.5t53 55t13 120.5v452l-139 80v46l274 95h37v-173q73 87 161 130.5t190 43.5q104 0 175 -53.5t88 -128t17 -198.5v-294q0 -90 14.5 -123.5t56 -53t77.5 -19.5v-74h-485v74h27q35 0 74.5 22 t51.5 56.5t12 117.5v275q0 162 -57 212.5t-133 50.5q-62 0 -129.5 -30.5t-139.5 -91.5zM328 1091l-61 30q23 105 78 164t115 59q57 0 151 -56q87 -51 127 -51q72 0 117 108l55 -28q-16 -109 -69 -167t-120 -58q-58 0 -150 48q-104 55 -132 55q-63 0 -111 -104z"/>
<glyph glyph-name="ograve" horiz-adv-x="1109" unicode="ò" d="M525 869q-112 0 -177 -78t-65 -247q0 -173 78.5 -332t225.5 -159q99 0 175.5 72t76.5 220q0 206 -81.5 365t-232.5 159zM88 482q0 181 132 322t328 141q200 0 337.5 -128.5t137.5 -347.5q0 -208 -133.5 -349.5t-328.5 -141.5q-205 0 -339 152t-134 352zM628 1072 l-206 247q-11 13 -11 29q0 31 57 31h60q40 0 57.5 -13t31.5 -53l83 -241h-72z"/>
<glyph glyph-name="oacute" horiz-adv-x="1109" unicode="ó" d="M525 869q-112 0 -177 -78t-65 -247q0 -173 78.5 -332t225.5 -159q99 0 175.5 72t76.5 220q0 206 -81.5 365t-232.5 159zM88 482q0 181 132 322t328 141q200 0 337.5 -128.5t137.5 -347.5q0 -208 -133.5 -349.5t-328.5 -141.5q-205 0 -339 152t-134 352zM483 1072h-72 l83 241q15 42 33.5 54t55.5 12h60q57 0 57 -29q0 -18 -11 -31z"/>
<glyph glyph-name="ocircumflex" horiz-adv-x="1109" unicode="ô" d="M525 869q-112 0 -177 -78t-65 -247q0 -173 78.5 -332t225.5 -159q99 0 175.5 72t76.5 220q0 206 -81.5 365t-232.5 159zM88 482q0 181 132 322t328 141q200 0 337.5 -128.5t137.5 -347.5q0 -208 -133.5 -349.5t-328.5 -141.5q-205 0 -339 152t-134 352zM531 1263 l-153 -191h-90l172 307h177l186 -307h-99z"/>
<glyph glyph-name="otilde" horiz-adv-x="1109" unicode="õ" d="M525 869q-112 0 -177 -78t-65 -247q0 -173 78.5 -332t225.5 -159q99 0 175.5 72t76.5 220q0 206 -81.5 365t-232.5 159zM88 482q0 181 132 322t328 141q200 0 337.5 -128.5t137.5 -347.5q0 -208 -133.5 -349.5t-328.5 -141.5q-205 0 -339 152t-134 352zM295 1091l-61 30 q23 105 78 164t115 59q57 0 151 -56q87 -51 127 -51q72 0 117 108l55 -28q-16 -109 -69 -167t-120 -58q-58 0 -150 48q-104 55 -132 55q-63 0 -111 -104z"/>
<glyph glyph-name="odieresis" horiz-adv-x="1109" unicode="ö" d="M525 869q-112 0 -177 -78t-65 -247q0 -173 78.5 -332t225.5 -159q99 0 175.5 72t76.5 220q0 206 -81.5 365t-232.5 159zM88 482q0 181 132 322t328 141q200 0 337.5 -128.5t137.5 -347.5q0 -208 -133.5 -349.5t-328.5 -141.5q-205 0 -339 152t-134 352zM627 1215 q0 40 28 70t71 30q42 0 71 -29t29 -71t-29.5 -70.5t-70.5 -28.5q-40 0 -69.5 29t-29.5 70zM283 1215q0 41 29 70.5t71 29.5q41 0 70 -29t29 -71q0 -41 -29.5 -70t-69.5 -29q-43 0 -71.5 29.5t-28.5 69.5z"/>
<glyph glyph-name="divide" horiz-adv-x="1365" unicode="÷" d="M780 258q0 -41 -29 -70t-70 -29t-70 29t-29 70t29 70t70 29t70 -29t29 -70zM135 743h1096v-150h-1096v150zM778 1086q0 -40 -29 -69t-69 -29q-41 0 -69.5 28.5t-28.5 69.5q0 40 28.5 69t69.5 29q40 0 69 -28.5t29 -69.5z"/>
<glyph glyph-name="oslash" horiz-adv-x="1097" unicode="ø" d="M778 662l-405 -472q85 -137 203 -137q103 0 184 77t81 214q0 161 -63 318zM335 267l406 472q-78 130 -215 130q-105 0 -173.5 -72.5t-68.5 -234.5q0 -172 51 -295zM220 133q-132 151 -132 339q0 186 129 329.5t329 143.5q162 0 294 -91l80 93l59 -50l-80 -94 q124 -130 124 -335q0 -207 -132.5 -348.5t-329.5 -141.5q-158 0 -283 101l-85 -100l-62 51z"/>
<glyph glyph-name="ugrave" horiz-adv-x="1173" unicode="ù" d="M983 922v-670q0 -91 14 -119t60 -28q18 0 66 9v-80l-311 -56v158q-84 -79 -170 -118.5t-174 -39.5q-84 0 -142.5 28t-88 72.5t-37.5 89t-8 147.5v314q0 128 -31.5 162t-131.5 34v74l335 23v-521q0 -106 12 -157.5t58 -86.5t115 -35q66 0 131.5 27t131.5 80v400 q0 121 -29 158.5t-119 37.5h-29v74zM631 1072l-206 247q-11 13 -11 29q0 31 57 31h60q40 0 57.5 -13t31.5 -53l83 -241h-72z"/>
<glyph glyph-name="uacute" horiz-adv-x="1173" unicode="ú" d="M983 922v-670q0 -91 14 -119t60 -28q18 0 66 9v-80l-311 -56v158q-84 -79 -170 -118.5t-174 -39.5q-84 0 -142.5 28t-88 72.5t-37.5 89t-8 147.5v314q0 128 -31.5 162t-131.5 34v74l335 23v-521q0 -106 12 -157.5t58 -86.5t115 -35q66 0 131.5 27t131.5 80v400 q0 121 -29 158.5t-119 37.5h-29v74zM522 1072h-72l83 241q15 42 33.5 54t55.5 12h60q57 0 57 -29q0 -18 -11 -31z"/>
<glyph glyph-name="ucircumflex" horiz-adv-x="1173" unicode="û" d="M983 922v-670q0 -91 14 -119t60 -28q18 0 66 9v-80l-311 -56v158q-84 -79 -170 -118.5t-174 -39.5q-84 0 -142.5 28t-88 72.5t-37.5 89t-8 147.5v314q0 128 -31.5 162t-131.5 34v74l335 23v-521q0 -106 12 -157.5t58 -86.5t115 -35q66 0 131.5 27t131.5 80v400 q0 121 -29 158.5t-119 37.5h-29v74zM552 1263l-153 -191h-90l172 307h177l186 -307h-99z"/>
<glyph glyph-name="udieresis" horiz-adv-x="1173" unicode="ü" d="M983 922v-670q0 -91 14 -119t60 -28q18 0 66 9v-80l-311 -56v158q-84 -79 -170 -118.5t-174 -39.5q-84 0 -142.5 28t-88 72.5t-37.5 89t-8 147.5v314q0 128 -31.5 162t-131.5 34v74l335 23v-521q0 -106 12 -157.5t58 -86.5t115 -35q66 0 131.5 27t131.5 80v400 q0 121 -29 158.5t-119 37.5h-29v74zM649 1215q0 40 28 70t71 30q42 0 71 -29t29 -71t-29.5 -70.5t-70.5 -28.5q-40 0 -69.5 29t-29.5 70zM305 1215q0 41 29 70.5t71 29.5q41 0 70 -29t29 -71q0 -41 -29.5 -70t-69.5 -29q-43 0 -71.5 29.5t-28.5 69.5z"/>
<glyph glyph-name="yacute" horiz-adv-x="981" unicode="ý" d="M477 -11l-327 739q-35 79 -63.5 99.5t-82.5 20.5v74h446v-74q-123 -3 -123 -76q0 -28 21 -75l213 -489l177 449q18 45 18 81q0 102 -131 110v74h354v-74q-60 -10 -89 -48t-79 -171l-316 -802q-87 -220 -269 -220q-75 0 -119.5 33.5t-44.5 84.5q0 38 27.5 61t60.5 23 q34 0 70 -31q41 -34 75 -34q95 0 155 168zM467 1072h-72l83 241q15 42 33.5 54t55.5 12h60q57 0 57 -29q0 -18 -11 -31z"/>
<glyph glyph-name="thorn" horiz-adv-x="1152" unicode="þ" d="M346 707v-306q0 -116 21.5 -181.5t84.5 -111t152 -45.5q126 0 203 90t77 257q0 194 -90.5 292.5t-205.5 98.5q-60 0 -120.5 -23.5t-121.5 -70.5zM346 36l1 -158q0 -78 11 -115t54 -59t73 -22h37v-74h-497v74q45 0 85 21t53 55.5t13 119.5v1329l-145 83v34l265 105h51 l-1 -638q74 77 157.5 115t176.5 38q178 0 278.5 -128t100.5 -306q0 -206 -134 -369t-340 -163q-61 0 -120.5 14.5t-118.5 43.5z"/>
<glyph glyph-name="ydieresis" horiz-adv-x="981" unicode="ÿ" d="M477 -11l-327 739q-35 79 -63.5 99.5t-82.5 20.5v74h446v-74q-123 -3 -123 -76q0 -28 21 -75l213 -489l177 449q18 45 18 81q0 102 -131 110v74h354v-74q-60 -10 -89 -48t-79 -171l-316 -802q-87 -220 -269 -220q-75 0 -119.5 33.5t-44.5 84.5q0 38 27.5 61t60.5 23 q34 0 70 -31q41 -34 75 -34q95 0 155 168zM563 1215q0 40 28 70t71 30q42 0 71 -29t29 -71t-29.5 -70.5t-70.5 -28.5q-40 0 -69.5 29t-29.5 70zM219 1215q0 41 29 70.5t71 29.5q41 0 70 -29t29 -71q0 -41 -29.5 -70t-69.5 -29q-43 0 -71.5 29.5t-28.5 69.5z"/>
<glyph glyph-name="Cacute" horiz-adv-x="1600" unicode="Ć" d="M1467 999h-67q-64 141 -191 239.5t-293 98.5q-223 0 -380.5 -165t-157.5 -459q0 -283 157 -468t411 -185q164 0 287.5 81.5t166.5 265.5h77l-10 -321q-96 -40 -261 -75t-301 -35q-347 0 -562 200.5t-215 501.5q0 309 222.5 526t586.5 217q226 0 480 -97zM914 1488h-72 l83 241q15 42 33.5 54t55.5 12h60q57 0 57 -29q0 -18 -11 -31z"/>
<glyph glyph-name="cacute" horiz-adv-x="960" unicode="ć" d="M854 270l47 -30q-29 -112 -128 -187t-247 -75q-211 0 -323 145.5t-112 329.5q0 185 119 338.5t365 153.5q134 0 227.5 -44.5t93.5 -139.5q0 -99 -77 -99q-56 0 -97 87q-28 58 -67 85q-39 26 -116 26q-130 0 -207 -94t-77 -237q0 -152 92.5 -271t247.5 -119q174 0 259 131 zM517 1072h-72l83 241q15 42 33.5 54t55.5 12h60q57 0 57 -29q0 -18 -11 -31z"/>
<glyph glyph-name="Ccaron" horiz-adv-x="1600" unicode="Č" d="M1467 999h-67q-64 141 -191 239.5t-293 98.5q-223 0 -380.5 -165t-157.5 -459q0 -283 157 -468t411 -185q164 0 287.5 81.5t166.5 265.5h77l-10 -321q-96 -40 -261 -75t-301 -35q-347 0 -562 200.5t-215 501.5q0 309 222.5 526t586.5 217q226 0 480 -97zM946 1608 l152 192h90l-172 -307h-177l-186 307h99z"/>
<glyph glyph-name="ccaron" horiz-adv-x="960" unicode="č" d="M854 270l47 -30q-29 -112 -128 -187t-247 -75q-211 0 -323 145.5t-112 329.5q0 185 119 338.5t365 153.5q134 0 227.5 -44.5t93.5 -139.5q0 -99 -77 -99q-56 0 -97 87q-28 58 -67 85q-39 26 -116 26q-130 0 -207 -94t-77 -237q0 -152 92.5 -271t247.5 -119q174 0 259 131 zM565 1241l152 192h90l-172 -307h-177l-186 307h99z"/>
<glyph glyph-name="dmacron" horiz-adv-x="1173" unicode="đ" d="M810 232v272q0 191 -84.5 273t-186.5 82q-128 0 -205.5 -105.5t-77.5 -231.5q0 -151 82 -279.5t230 -128.5q75 0 135.5 29.5t106.5 88.5zM981 1148h148v-82h-148v-804q0 -92 16 -123.5t65 -31.5q22 0 67 9v-81l-319 -57v152q-82 -76 -168 -114t-175 -38q-158 0 -271 125 t-113 314q0 205 143 365.5t355 160.5q47 0 104 -9.5t125 -28.5v161h-305v82h305v67l-151 87v34l281 88h41v-276z"/>
<glyph glyph-name="Gbreve" horiz-adv-x="1707" unicode="Ğ" d="M1457 1329l27 -328h-83q-150 337 -481 337q-251 0 -410 -184.5t-159 -448.5q0 -269 170 -457t421 -188q166 0 340 94v251q0 111 -22.5 154t-75 62.5t-91.5 19.5h-56v77h656v-77q-39 0 -90.5 -19.5t-74 -62.5t-22.5 -154v-332q-339 -97 -587 -97q-371 0 -598.5 200 t-227.5 505q0 301 250 520.5t618 219.5q217 0 496 -92zM640 1819h86q37 -186 207 -186q166 0 207 186h86q-6 -168 -90.5 -257t-202.5 -89t-202.5 89t-90.5 257z"/>
<glyph glyph-name="gbreve" horiz-adv-x="1024" unicode="ğ" d="M296 -6q-69 -70 -81 -96t-12 -49q0 -67 90 -102t195 -35q139 0 251.5 41t112.5 117q0 109 -244 109l-117 -1q-88 0 -195 16zM292 646q0 -127 55.5 -203.5t144.5 -76.5q83 0 132 58.5t49 168.5q0 131 -67 198.5t-137 67.5q-80 0 -128.5 -67t-48.5 -146zM278 335 q-84 49 -126 118t-42 157q0 141 104 238t256 97q57 0 149 -20q196 -42 307 -42q48 0 94 5l-9 -139q-44 -4 -69 -4q-53 0 -123 16q32 -70 32 -143q0 -158 -121 -244.5t-257 -86.5q-46 0 -130 19q-32 -25 -48 -45t-16 -34q0 -36 42.5 -50.5t207.5 -14.5q176 0 261.5 -15.5 t140.5 -70t55 -129.5q0 -145 -151 -242.5t-386 -97.5q-187 0 -292.5 59.5t-105.5 128.5q0 42 44 96t131 120q-118 50 -118 115q0 35 42.5 87.5t127.5 121.5zM227 1439h86q37 -186 207 -186q166 0 207 186h86q-6 -168 -90.5 -257t-202.5 -89t-202.5 89t-90.5 257z"/>
<glyph glyph-name="Idotaccent" horiz-adv-x="768" unicode="İ" d="M55 1397h658v-77h-29q-45 0 -95 -20t-72.5 -62t-22.5 -155v-769q0 -111 22.5 -154.5t75.5 -63t92 -19.5h29v-77h-658v77h34q45 0 94.5 20t72 62t22.5 155v769q0 111 -22.5 154.5t-75 63t-91.5 19.5h-34v77zM287 1620q0 44 29.5 73t70.5 29t70 -29t29 -71q0 -41 -29 -70 t-70 -29q-44 0 -72 30t-28 67z"/>
<glyph glyph-name="dotlessi" horiz-adv-x="555" unicode="ı" d="M381 943v-673q0 -86 14 -122t54 -55t59 -19v-74h-455v74q86 0 121 42.5t35 153.5v448l-156 83v38l278 104h50z"/>
<glyph glyph-name="Lslash" horiz-adv-x="1387" unicode="Ł" d="M494 875l270 211v-151l-270 -211v-338q0 -138 26 -190t79 -82.5t163 -30.5h147q118 0 187.5 21.5t133.5 83t116 154.5h87l-87 -342h-1300v75h42q46 0 95.5 20.5t72 62t22.5 154.5v243l-216 -168v151l216 168v377q0 111 -22.5 154.5t-75.5 63t-92 19.5h-42v77h678v-77h-41 q-45 0 -94.5 -20t-72 -62t-22.5 -155v-208z"/>
<glyph glyph-name="lslash" horiz-adv-x="555" unicode="ł" d="M367 813l174 163v-133l-174 -162v-411q0 -72 10 -111t47.5 -62t71.5 -23v-74h-440v74q39 0 77 22t50.5 55t12.5 119v250l-182 -170v133l182 170v552l-140 78v44l270 97h41v-611z"/>
<glyph glyph-name="OE" horiz-adv-x="2112" unicode="Œ" d="M357 787q0 -198 66.5 -370.5t159 -249.5t204.5 -77q157 0 265 154t108 411q0 265 -117.5 462t-300.5 197q-154 0 -269.5 -133.5t-115.5 -393.5zM1410 776h149q116 0 162 44t51 158h93v-504h-93q-19 131 -67.5 172.5t-157.5 41.5h-133q0 -370 -325 -605h484q117 0 173 21 t107.5 75.5t134.5 177.5h85l-69 -357h-1153q-168 0 -279 27t-223 121t-176.5 238t-64.5 324q0 223 106.5 388.5t261.5 232t358 66.5h1135l12 -320h-75q-78 175 -154 206t-224 31h-448q126 -66 219 -205.5t111 -332.5z"/>
<glyph glyph-name="oe" horiz-adv-x="1557" unicode="œ" d="M1277 645q-16 113 -60.5 168t-133.5 55q-161 0 -180 -223h374zM271 535q0 -217 60 -349.5t192 -132.5q109 0 163.5 80.5t54.5 241.5q0 229 -64.5 361.5t-187.5 132.5q-109 0 -163.5 -83.5t-54.5 -250.5zM902 572q6 -257 103.5 -344t218.5 -87q143 0 234 120l43 -28 q-40 -101 -134 -178t-217 -77q-192 0 -319 151q-70 -75 -151.5 -113t-175.5 -38q-181 0 -301 139.5t-120 342.5q0 186 118.5 334.5t315.5 148.5q185 0 314 -144q105 144 293 144q316 0 357 -371h-579z"/>
<glyph glyph-name="Scedilla" horiz-adv-x="1216" unicode="Ş" d="M662 -22l-23 -50q143 -30 143 -144q0 -67 -68 -119t-223 -52h-95v74l28 -1q89 0 133.5 19t44.5 57q0 72 -131 75l81 138q-284 18 -438 98l-10 353h98q60 -351 376 -351q125 0 214 67t89 161q0 74 -63 141q-64 67 -269 186q-258 150 -332 240q-75 90 -75 200 q0 155 131 253.5t345 98.5q211 0 427 -118v-300h-88q-16 169 -116.5 251t-238.5 82q-105 0 -180.5 -56t-75.5 -138q0 -60 35.5 -104.5t82.5 -79t242 -146.5q239 -136 316 -235q76 -99 76 -214q0 -154 -116 -258t-320 -128z"/>
<glyph glyph-name="scedilla" horiz-adv-x="811" unicode="ş" d="M468 -20l-17 -45q107 -27 107 -129q0 -60 -50 -107.5t-169 -47.5q-15 0 -70 1v66h21q67 0 100 17t33 51q0 64 -98 67l61 126q-161 14 -258 64v258h68q31 -248 218 -248q74 0 129.5 38.5t55.5 107.5q0 50 -35 89q-36 39 -146 89q-188 84 -254 149q-67 64 -67 164 q0 112 83.5 183t216.5 71q83 0 152.5 -22t125.5 -66v-220h-64q-21 117 -74 175t-138 58q-68 0 -111 -35t-43 -102q0 -50 36 -86q35 -37 222 -121q137 -61 187 -118q49 -58 49 -163q0 -109 -68.5 -180t-202.5 -84z"/>
<glyph glyph-name="Scaron" horiz-adv-x="1216" unicode="Š" d="M114 73l-10 353h98q60 -351 376 -351q125 0 214 67t89 161q0 74 -63 141q-64 67 -269 186q-258 150 -332 240q-75 90 -75 200q0 155 131 253.5t345 98.5q211 0 427 -118v-300h-88q-16 169 -116.5 251t-238.5 82q-98 0 -177 -52.5t-79 -141.5q0 -51 26.5 -92.5t78 -81 t255.5 -156.5q240 -136 316 -235t76 -214q0 -177 -148 -283.5t-364 -106.5q-108 0 -251.5 30t-220.5 69zM626 1608l152 192h90l-172 -307h-177l-186 307h99z"/>
<glyph glyph-name="scaron" horiz-adv-x="811" unicode="š" d="M713 856v-220h-64q-21 117 -74 175t-138 58q-68 0 -111 -35t-43 -102q0 -59 45 -95t213 -112q137 -61 187 -118q49 -58 49 -163q0 -124 -85.5 -195t-227.5 -71q-169 0 -298 65v258h68q31 -248 218 -248q74 0 129.5 38.5t55.5 107.5q0 50 -35 89q-36 39 -146 89 q-188 84 -254 149q-67 64 -67 164q0 112 83.5 183t216.5 71q83 0 152.5 -22t125.5 -66zM390 1187l152 192h90l-172 -307h-177l-186 307h99z"/>
<glyph glyph-name="Ydieresis" horiz-adv-x="1472" unicode="Ÿ" d="M843 585v-271q0 -116 22.5 -156.5t72.5 -60.5t110 -20v-77h-630v77h19q46 0 95.5 20t72 62t22.5 155v271l-402 588q-56 82 -94.5 110t-117.5 37v77h614v-77q-90 -6 -123.5 -24t-33.5 -60q0 -47 28 -88l312 -453l228 334q66 95 66 157q0 121 -155 134v77h505v-77 q-49 -5 -94.5 -35.5t-140.5 -165.5zM857 1622q0 40 28 70t71 30q42 0 71 -29t29 -71t-29.5 -70.5t-70.5 -28.5q-40 0 -69.5 29t-29.5 70zM513 1622q0 41 29 70.5t71 29.5q41 0 70 -29t29 -71q0 -41 -29.5 -70t-69.5 -29q-43 0 -71.5 29.5t-28.5 69.5z"/>
<glyph glyph-name="Zcaron" horiz-adv-x="1387" unicode="Ž" d="M1319 362l-93 -362h-1177v59l934 1255h-415q-131 0 -207 -45t-135 -190h-75v318h1119v-56l-942 -1258h407q181 0 273.5 45t178.5 161l53 73h79zM710 1608l152 192h90l-172 -307h-177l-186 307h99z"/>
<glyph glyph-name="zcaron" horiz-adv-x="896" unicode="ž" d="M823 0h-785v32l599 817h-215q-86 0 -150 -31t-124 -114h-57v253h44q28 -35 144 -35h524q29 0 36.5 -5.5t7.5 -23.5v-44l-579 -777h145q164 0 244.5 42t136.5 177h73zM483 1187l152 192h90l-172 -307h-177l-186 307h99z"/>
<glyph glyph-name="florin" horiz-adv-x="1195" unicode="ƒ" d="M1083 922l-20 -90h-227l-127 -468q-65 -242 -121.5 -425t-136 -254t-156.5 -71q-52 0 -90.5 27.5t-38.5 71.5q0 58 57 58q39 0 76 -65q18 -33 41 -33q24 0 50 32.5t63 242.5q47 263 86 393q3 12 7 29l115 462h-211l20 90h211l26 110q97 414 302 414q59 0 102.5 -31 t43.5 -70q0 -30 -19 -48t-43 -18q-40 0 -64 66q-14 39 -46 39q-37 0 -56 -39t-28 -145q-10 -107 -31 -207l-14 -71h229z"/>
<glyph glyph-name="circumflex" d="M318 1317l-153 -191h-90l172 307h177l186 -307h-99z" unicode="ˆ"/>
<glyph glyph-name="caron" d="M353 1241l152 192h90l-172 -307h-177l-186 307h99z" unicode="ˇ"/>
<glyph glyph-name="macron" d="M48 1202v128h590v-128h-590z" unicode="ˉ"/>
<glyph glyph-name="breve" d="M45 1439h86q37 -186 207 -186q166 0 207 186h86q-6 -168 -90.5 -257t-202.5 -89t-202.5 89t-90.5 257z" unicode="˘"/>
<glyph glyph-name="dotaccent" d="M242 1267q0 44 29.5 73t70.5 29t70 -29t29 -71q0 -41 -29 -70t-70 -29q-44 0 -72 30t-28 67z" unicode="˙"/>
<glyph glyph-name="ring" d="M341 1375q-43 0 -74.5 -31t-31.5 -75t31 -74.5t75 -30.5t74.5 31t30.5 74q0 44 -31 75t-74 31zM172 1269q0 70 49.5 119.5t119.5 49.5t119.5 -49.5t49.5 -119.5t-50 -119.5t-119 -49.5t-119 50t-50 119z" unicode="˚"/>
<glyph glyph-name="ogonek" d="M228 16h52q-26 -50 -26 -99q0 -96 68.5 -145.5t145.5 -49.5q57 0 119 23l21 -32q-82 -46 -127 -61t-108 -15q-103 0 -164 53t-61 133q0 118 80 193z" unicode="˛"/>
<glyph glyph-name="tilde" d="M76 1145l-61 30q23 105 78 164t115 59q57 0 151 -56q87 -51 127 -51q72 0 117 108l55 -28q-16 -109 -69 -167t-120 -58q-58 0 -150 48q-104 55 -132 55q-63 0 -111 -104z" unicode="˜"/>
<glyph glyph-name="hungarumlaut" d="M475 1126h-72l84 244q12 37 28.5 50t60.5 13h59q58 0 58 -33q0 -17 -12 -30zM198 1126h-72l83 244q13 37 29.5 50t59.5 13h60q57 0 57 -33q0 -17 -11 -30z" unicode="˝"/>
<glyph glyph-name="endash" horiz-adv-x="1024" unicode="–" d="M-12 558h1048v-92h-1048v92z"/>
<glyph glyph-name="emdash" horiz-adv-x="2048" unicode="—" d="M-12 558h2072v-92h-2072v92z"/>
<glyph glyph-name="quoteleft" horiz-adv-x="597" unicode="‘" d="M438 1421l30 -67q-221 -74 -221 -206q0 -71 61 -71q148 0 148 -108q0 -52 -34 -84t-92 -32q-88 0 -143.5 66.5t-55.5 164.5q0 246 307 337z"/>
<glyph glyph-name="quoteright" horiz-adv-x="597" unicode="’" d="M159 853l-30 67q221 74 221 206q0 71 -61 71q-148 0 -148 108q0 56 35.5 86t90.5 30q88 0 143.5 -66.5t55.5 -164.5q0 -246 -307 -337z"/>
<glyph glyph-name="quotesinglbase" horiz-adv-x="597" unicode="‚" d="M159 -234l-30 67q221 73 221 206q0 71 -61 71q-148 0 -148 108q0 52 34 84t92 32q89 0 144 -67.5t55 -164.5q0 -245 -307 -336z"/>
<glyph glyph-name="quotedblleft" horiz-adv-x="1045" unicode="“" d="M429 1421l30 -67q-221 -74 -221 -206q0 -71 61 -71q148 0 148 -108q0 -52 -34 -84t-92 -32q-88 0 -143.5 66.5t-55.5 164.5q0 246 307 337zM887 1421l30 -67q-220 -74 -220 -206q0 -71 61 -71q147 0 147 -108q0 -52 -33.5 -84t-91.5 -32q-90 0 -145 67.5t-55 163.5 q0 246 307 337z"/>
<glyph glyph-name="quotedblright" horiz-adv-x="1045" unicode="”" d="M616 853l-30 67q221 74 221 206q0 71 -61 71q-148 0 -148 108q0 52 34 84t92 32q89 0 144 -67.5t55 -163.5q0 -246 -307 -337zM161 853l-30 67q221 74 221 206q0 71 -61 71q-148 0 -148 108q0 56 35.5 86t90.5 30q88 0 143.5 -66.5t55.5 -164.5q0 -246 -307 -337z"/>
<glyph glyph-name="quotedblbase" horiz-adv-x="1045" unicode="„" d="M617 -234l-31 67q221 73 221 206q0 71 -61 71q-147 0 -147 108q0 52 33.5 84t91.5 32q89 0 144 -67.5t55 -164.5q0 -245 -306 -336zM158 -234l-30 67q221 73 221 206q0 71 -61 71q-148 0 -148 108q0 52 34 84t92 32q89 0 144 -67.5t55 -164.5q0 -245 -307 -336z"/>
<glyph glyph-name="bullet" horiz-adv-x="725" unicode="•" d="M363 928q101 0 176 -71.5t75 -179.5q0 -103 -74 -177t-177 -74q-104 0 -177.5 74t-73.5 177q0 107 74.5 179t176.5 72z"/>
<glyph glyph-name="guilsinglleft" horiz-adv-x="512" unicode="‹" d="M250 515l185 -450h-50l-303 450l303 458h50z"/>
<glyph glyph-name="guilsinglright" horiz-adv-x="512" unicode="›" d="M252 515l-185 458h51l302 -458l-302 -450h-51z"/>
<glyph glyph-name="franc" horiz-adv-x="1536" unicode="₣" d="M1094 943h42v-201q86 134 141.5 163t105.5 29q67 0 113 -42t46 -73q0 -32 -26.5 -82.5t-58.5 -50.5q-37 0 -83 54q-35 41 -72 41q-34 0 -67.5 -27.5t-98.5 -122.5v-358q0 -112 35 -154t139 -42h33v-77h-525v77q48 0 88 25.5t49.5 61t9.5 109.5v191q0 88 -63.5 160 t-195.5 72h-201v-382q0 -111 22.5 -154.5t76 -63t92.5 -19.5h47v-77h-671v77h27q46 0 95.5 20t72 62t22.5 155v769q0 111 -22.5 154t-75.5 62.5t-92 19.5h-40v78h1243v-316h-61q-58 117 -111.5 163.5t-110.5 58t-207 11.5h-307v-526h302q73 0 113 6.5t90.5 41t83.5 107.5z "/>
<glyph glyph-name="Euro" horiz-adv-x="1131" unicode="€" d="M922 610l-23 -88h-543q27 -220 115 -340.5t219 -120.5q144 0 279 121l53 -57q-148 -150 -356 -150q-193 0 -332.5 146.5t-171.5 400.5h-127l16 88h103v37q0 53 2 76h-121l16 88h117q44 253 182 400t334 147q146 0 311 -92l31 -273h-65q-88 281 -291 281q-125 0 -210 -119 t-106 -344h609l-23 -88h-592v-43q0 -49 2 -70h572z"/>
<glyph glyph-name="fraction" horiz-adv-x="491" unicode="∕" d="M-172 -44h-109l944 1489h109z"/>
<glyph glyph-name="foursuperior" d="M372 913v318l-251 -318h251zM511 849v-52q0 -58 19 -75.5t50 -17.5h36v-51h-351v51h37q31 0 50.5 18t19.5 75v52h-330v67l351 444h118v-447q37 1 61 66h64l-20 -130h-105z" unicode=""/>
</font>
</defs>
</svg>
