<?xml version="1.0" encoding="utf-8"?>
<!-- Generator: Adobe Illustrator 18.1.0, SVG Export Plug-In . SVG Version: 6.00 Build 0)  -->
<svg version="1.1" id="Layer_1" xmlns="http://www.w3.org/2000/svg" xmlns:xlink="http://www.w3.org/1999/xlink" x="0px" y="0px"
	 viewBox="0 0 266.6 61.8" enable-background="new 0 0 266.6 61.8" xml:space="preserve">
<g>
	<g>
		<path fill="#FFFFFF" d="M8.3,13.2v0.9c-0.9,0-1.5,0.2-1.9,0.5C6,15,5.8,15.6,5.8,16.4v9.9c0,0.8,0.2,1.4,0.6,1.8
			c0.4,0.4,1.1,0.6,2.1,0.6v0.9H0.7v-0.9c0.9,0,1.6-0.2,2-0.6c0.4-0.4,0.6-1.1,0.6-2v-9.3c0-0.9-0.2-1.6-0.5-2c-0.4-0.4-1-0.6-2-0.6
			v-0.9H8.3z M17.8,13.2v0.9c-0.6,0.1-1.1,0.2-1.6,0.3c-0.4,0.2-0.9,0.4-1.4,0.8c-0.4,0.3-1,0.8-1.8,1.6c-0.7,0.6-1.4,1.2-2,1.8
			s-1.4,1.2-2.3,1.8c0.5,0.4,1,0.8,1.6,1.3c0.6,0.5,1.3,1.1,2.1,1.9c0.9,0.8,1.7,1.5,2.3,2.1s1.2,1,1.7,1.4c0.6,0.5,1.2,0.8,1.7,1
			c0.5,0.2,1,0.4,1.5,0.5v1h-4.2c-0.6-0.5-1.8-1.5-3.4-3c-2.3-2.2-4.2-3.9-5.7-5.1L6,21.2c2.2-1.6,3.9-2.8,4.9-3.8
			c1-1,1.6-1.7,1.6-2.2c0-0.7-0.5-1-1.5-1v-0.9H17.8z"/>
		<path fill="#FFFFFF" d="M34.9,29.6H20.8v-0.9c0.9,0,1.6-0.2,2-0.6c0.4-0.4,0.6-1,0.6-1.9v-9.6c0-0.8-0.2-1.4-0.6-1.8
			c-0.4-0.4-1-0.6-2-0.6v-0.9h13.9v3.6h-0.9c-0.4-1-0.9-1.7-1.5-2.1c-0.6-0.4-1.5-0.5-2.5-0.5h-3.8v6.3h3.2c1.1,0,1.9-0.2,2.4-0.5
			c0.5-0.3,0.7-0.9,0.8-1.8h1V24h-1c-0.1-0.9-0.4-1.5-0.9-1.9s-1.2-0.5-2.3-0.5h-3.3v4c0,1.2,0.2,1.9,0.6,2.4
			c0.4,0.4,1.1,0.6,2.2,0.6h1.2c1.3,0,2.4-0.2,3.1-0.6c0.7-0.4,1.4-1.2,1.9-2.3H36L34.9,29.6z"/>
		<path fill="#FFFFFF" d="M58.9,26.3c0.1,0.8,0.3,1.3,0.7,1.7c0.4,0.4,1,0.6,1.8,0.7v0.9h-7.2v-0.9c0.7,0,1.2-0.2,1.6-0.5
			s0.5-0.9,0.5-1.5c0,0,0-0.1,0-0.2c0-0.1,0-0.2,0-0.3l-1.1-9.2h0c-0.4,1.1-0.8,2.2-1.3,3.2c-0.5,1-1.1,2.3-1.8,3.7
			c-0.7,1.4-1.2,2.5-1.6,3.4c-0.4,0.9-0.7,1.7-0.8,2.4h-1.1c-0.1-0.7-0.4-1.6-0.8-2.5c-0.4-1-1.1-2.3-1.9-3.9
			c-0.7-1.5-1.3-2.7-1.8-3.7c-0.5-1-0.9-2-1.1-2.9h0l-1.2,8.7c-0.1,0.5-0.1,0.9-0.1,1.2c0,0.8,0.2,1.3,0.5,1.7
			c0.4,0.3,0.9,0.5,1.7,0.6v0.9h-5.6v-0.9c0.7,0,1.2-0.2,1.5-0.6c0.3-0.4,0.6-1,0.7-1.9l1.4-8.9c0.1-0.4,0.1-0.8,0.1-1.2
			c0-0.7-0.1-1.1-0.4-1.5c-0.3-0.3-0.8-0.5-1.4-0.6v-0.9h4.8c0.1,1.1,0.4,2.3,0.9,3.5c0.5,1.2,1.2,2.8,2.1,4.6c0.6,1.1,1,2,1.3,2.7
			c0.3,0.7,0.6,1.4,0.8,2c1-2,1.8-3.7,2.6-5.1c0.7-1.5,1.3-2.7,1.7-3.7c0.5-1.2,0.8-2.3,0.8-3.1c0-0.3,0-0.6-0.1-0.9h4.9v0.9
			c-0.7,0.1-1.2,0.2-1.5,0.5c-0.3,0.3-0.4,0.7-0.4,1.3c0,0.3,0,0.6,0.1,1L58.9,26.3z"/>
		<path fill="#FFFFFF" d="M65.8,16.3c0-1.5-0.8-2.2-2.4-2.2v-0.9h8.4c1.6,0,2.9,0.4,3.9,1.2c1,0.8,1.5,1.8,1.5,3.1
			c0,1.4-0.5,2.5-1.6,3.4s-2.5,1.3-4.3,1.3c-1.1,0-1.7-0.2-1.7-0.7c0-0.2,0.1-0.3,0.2-0.4c0.1-0.1,0.3-0.1,0.5-0.1
			c0.1,0,0.2,0,0.3,0c0.1,0,0.2,0,0.2,0c1.1,0,1.9-0.3,2.5-0.9s1-1.4,1-2.3c0-0.5-0.1-1-0.2-1.4c-0.1-0.4-0.3-0.8-0.6-1.1
			s-0.7-0.6-1.2-0.8s-1.2-0.3-2-0.3h-2v11.9c0,0.9,0.2,1.6,0.6,1.9c0.4,0.4,1.1,0.6,2.2,0.6v0.9h-7.7v-0.9c0.9,0,1.6-0.2,1.9-0.6
			c0.3-0.4,0.5-1,0.5-1.9V16.3z"/>
		<path fill="#FFFFFF" d="M80.2,24.6h1c0.3,1.3,0.7,2.3,1.5,3c0.7,0.7,1.7,1.1,3,1.1c1,0,1.8-0.3,2.5-0.8s1.1-1.2,1.1-1.9
			c0-0.3-0.1-0.5-0.2-0.8c-0.1-0.3-0.4-0.6-0.7-0.9c-0.3-0.3-0.7-0.6-1.2-0.9s-1.1-0.7-1.8-1.1c-0.9-0.5-1.6-0.9-2.2-1.3
			s-1.1-0.8-1.6-1.3c-0.4-0.4-0.6-0.7-0.8-1.1c-0.2-0.4-0.3-0.9-0.3-1.4c0-1.2,0.5-2.2,1.5-3s2.4-1.1,4-1.1c0.8,0,1.7,0.1,2.5,0.3
			c0.9,0.2,1.7,0.6,2.5,1v3.5h-1c-0.1-1.2-0.5-2.1-1.3-2.8c-0.8-0.7-1.7-1-2.9-1c-0.8,0-1.5,0.2-2.1,0.7c-0.6,0.4-0.9,1-0.9,1.6
			c0,0.6,0.3,1.1,0.8,1.6c0.3,0.3,0.6,0.5,1,0.8c0.4,0.3,1,0.6,1.8,1c0.9,0.5,1.7,1,2.3,1.4c0.6,0.4,1.1,0.8,1.5,1.2
			c0.9,0.9,1.3,1.9,1.3,3c0,0.7-0.1,1.3-0.4,1.8c-0.3,0.6-0.7,1-1.2,1.4c-0.5,0.4-1.2,0.7-1.9,0.9c-0.7,0.2-1.5,0.3-2.4,0.3
			c-0.4,0-0.9,0-1.4-0.1c-0.5-0.1-1-0.1-1.6-0.3c-0.5-0.1-1-0.2-1.5-0.4c-0.4-0.1-0.8-0.3-1.1-0.4V24.6z"/>
		<path fill="#FFFFFF" d="M101.9,14.3h-2.6c-0.6,0-1,0-1.4,0.1c-0.4,0.1-0.7,0.2-1,0.4c-0.3,0.2-0.6,0.5-0.8,0.8
			c-0.3,0.4-0.6,0.9-0.9,1.5h-0.8l0.2-3.9h17.1l0.3,3.9h-0.8c-0.4-0.6-0.7-1.1-1-1.5c-0.3-0.4-0.5-0.6-0.8-0.8
			c-0.3-0.2-0.6-0.3-1-0.4c-0.4-0.1-0.8-0.1-1.4-0.1h-2.6v12.1c0,0.8,0.2,1.4,0.6,1.8c0.4,0.4,1.1,0.6,2,0.6v0.9h-7.7v-0.9
			c1,0,1.6-0.2,2-0.6c0.4-0.4,0.6-1,0.6-1.9V14.3z"/>
		<path fill="#FFFFFF" d="M114.7,18c0.5-1.1,1.1-2,1.9-2.8c0.8-0.7,1.7-1.3,2.7-1.7s2-0.6,3.1-0.6c1.2,0,2.3,0.2,3.3,0.6
			c1,0.4,1.9,1,2.7,1.8c0.8,0.8,1.4,1.7,1.8,2.7c0.4,1,0.6,2.2,0.6,3.4c0,1.2-0.2,2.3-0.7,3.3c-0.4,1-1.1,1.9-1.9,2.7
			c-0.8,0.8-1.8,1.4-2.8,1.8c-1.1,0.4-2.2,0.6-3.5,0.6c-1.1,0-2.1-0.2-3.1-0.6c-1-0.4-1.9-1-2.6-1.7c-0.8-0.7-1.3-1.6-1.8-2.6
			c-0.4-1-0.6-2.1-0.6-3.3C113.9,20.3,114.2,19.1,114.7,18z M117.2,23.6c0.3,1,0.6,1.9,1.1,2.7c0.5,0.8,1.1,1.4,1.9,1.9
			s1.6,0.7,2.5,0.7c1.6,0,2.8-0.6,3.8-1.8c1-1.2,1.4-2.7,1.4-4.7c0-1.1-0.1-2.1-0.4-3.1c-0.3-1-0.6-1.9-1.1-2.7
			c-0.5-0.8-1.1-1.4-1.9-1.9S123,14,122,14c-1.5,0-2.7,0.6-3.7,1.7c-1,1.1-1.5,2.7-1.5,4.8C116.9,21.5,117,22.6,117.2,23.6z"/>
		<path fill="#FFFFFF" d="M136.6,16.2l-1.1-1.1c-0.4-0.4-0.7-0.6-1-0.7c-0.3-0.1-0.7-0.2-1.2-0.3v-0.9h3.9l12.3,12.4v-7.8
			c0-0.5-0.1-1-0.1-1.4s-0.2-0.8-0.4-1.1s-0.5-0.6-0.9-0.8c-0.4-0.2-0.9-0.3-1.4-0.3v-0.9h6.5v0.9c-0.9,0-1.5,0.3-1.9,1
			s-0.6,1.6-0.6,2.7v7.5c0,0.6,0,1.2,0.1,1.6c0.1,0.4,0.1,0.8,0.2,1.3c0.1,0.6,0.2,1.2,0.2,1.6h-1.6c-0.8-1-1.4-1.8-1.9-2.3
			l-9.9-10.2v8.3c0,1.1,0.2,1.9,0.7,2.3c0.5,0.5,1.2,0.7,2.2,0.7v0.9h-6.9v-0.9c1.1,0,1.8-0.2,2.2-0.6c0.4-0.4,0.7-1.1,0.7-2V16.2z"
			/>
	</g>
	<g>
		<path fill="#FFFFFF" d="M155.1,21.8h7.4v1.8h-7.4V21.8z"/>
	</g>
	<g>
		<path fill="#FFFFFF" d="M167.4,16.3c0-1.5-0.8-2.2-2.4-2.2v-0.9h8.4c1.6,0,2.9,0.4,3.9,1.2c1,0.8,1.5,1.8,1.5,3.1
			c0,1.4-0.5,2.5-1.6,3.4s-2.5,1.3-4.3,1.3c-1.1,0-1.7-0.2-1.7-0.7c0-0.2,0.1-0.3,0.2-0.4c0.1-0.1,0.3-0.1,0.5-0.1
			c0.1,0,0.2,0,0.3,0c0.1,0,0.2,0,0.2,0c1.1,0,1.9-0.3,2.5-0.9s1-1.4,1-2.3c0-0.5-0.1-1-0.2-1.4c-0.1-0.4-0.3-0.8-0.6-1.1
			s-0.7-0.6-1.2-0.8s-1.2-0.3-2-0.3h-2v11.9c0,0.9,0.2,1.6,0.6,1.9c0.4,0.4,1.1,0.6,2.2,0.6v0.9h-7.7v-0.9c0.9,0,1.6-0.2,1.9-0.6
			c0.3-0.4,0.5-1,0.5-1.9V16.3z"/>
		<path fill="#FFFFFF" d="M189.5,23.2h-6.3l-0.9,2.3c-0.2,0.4-0.2,0.8-0.2,1.2c0,0.6,0.2,1,0.5,1.4s0.8,0.6,1.5,0.6v0.9h-5.5v-0.9
			c0.6-0.1,1-0.4,1.3-0.8c0.3-0.4,0.6-1,1-1.9l4.8-12l-0.4-0.8h2.6l6,13.8c0.3,0.6,0.5,1,0.8,1.2c0.3,0.2,0.6,0.4,1,0.4v0.9H189
			v-0.9c1.3-0.1,2-0.6,2-1.5c0-0.3-0.1-0.7-0.2-1.1L189.5,23.2z M186.3,15.4l-2.6,6.5h5.3L186.3,15.4z"/>
		<path fill="#FFFFFF" d="M202.6,26.4c0,0.8,0.2,1.3,0.6,1.7c0.4,0.4,1,0.6,1.9,0.6v0.9h-7.5v-0.9c1,0,1.6-0.2,1.9-0.7
			c0.3-0.5,0.5-1.1,0.5-2.1v-9.4c0-1.6-0.8-2.4-2.4-2.4v-0.9h7.8c1.1,0,2,0.1,2.8,0.3s1.4,0.5,1.9,0.9c0.5,0.4,0.8,0.8,1.1,1.3
			c0.2,0.5,0.3,1.1,0.3,1.7c0,1-0.4,1.8-1.1,2.6c-0.7,0.8-1.9,1.3-3.4,1.5l3.4,3.9c1,1.1,1.8,1.9,2.4,2.4c0.6,0.5,1.1,0.8,1.6,0.8
			v0.9h-1.9c-0.4,0-0.8,0-1.2-0.1c-0.3-0.1-0.6-0.2-0.9-0.4c-0.3-0.2-0.6-0.5-1-0.8c-0.3-0.4-0.7-0.8-1.2-1.4l-3.2-4
			c-0.3-0.4-0.6-0.7-0.8-0.8c-0.2-0.1-0.6-0.2-1.1-0.2h-0.7V26.4z M204.8,20.8c1.3,0,2.3-0.3,2.9-0.8s0.9-1.3,0.9-2.3
			s-0.4-1.8-1.1-2.5c-0.7-0.7-1.8-1-3.2-1h-1.9v6.6H204.8z"/>
		<path fill="#FFFFFF" d="M223.3,13.2v0.9c-0.9,0-1.5,0.2-1.9,0.5c-0.4,0.4-0.6,0.9-0.6,1.7v9.9c0,0.8,0.2,1.4,0.6,1.8
			c0.4,0.4,1.1,0.6,2.1,0.6v0.9h-7.8v-0.9c0.9,0,1.6-0.2,2-0.6c0.4-0.4,0.6-1.1,0.6-2v-9.3c0-0.9-0.2-1.6-0.5-2
			c-0.4-0.4-1-0.6-2-0.6v-0.9H223.3z M232.8,13.2v0.9c-0.6,0.1-1.1,0.2-1.6,0.3c-0.4,0.2-0.9,0.4-1.4,0.8c-0.4,0.3-1,0.8-1.8,1.6
			c-0.7,0.6-1.4,1.2-2,1.8s-1.4,1.2-2.3,1.8c0.5,0.4,1,0.8,1.6,1.3c0.6,0.5,1.3,1.1,2.1,1.9c0.9,0.8,1.7,1.5,2.3,2.1s1.2,1,1.7,1.4
			c0.6,0.5,1.2,0.8,1.7,1c0.5,0.2,1,0.4,1.5,0.5v1h-4.2c-0.6-0.5-1.8-1.5-3.4-3c-2.3-2.2-4.2-3.9-5.7-5.1l-0.3-0.3
			c2.2-1.6,3.9-2.8,4.9-3.8c1-1,1.6-1.7,1.6-2.2c0-0.7-0.5-1-1.5-1v-0.9H232.8z"/>
		<path fill="#FFFFFF" d="M249.9,29.6h-14.1v-0.9c0.9,0,1.6-0.2,2-0.6c0.4-0.4,0.6-1,0.6-1.9v-9.6c0-0.8-0.2-1.4-0.6-1.8
			c-0.4-0.4-1-0.6-2-0.6v-0.9h13.9v3.6h-0.9c-0.4-1-0.9-1.7-1.5-2.1c-0.6-0.4-1.5-0.5-2.5-0.5h-3.8v6.3h3.2c1.1,0,1.9-0.2,2.4-0.5
			c0.5-0.3,0.7-0.9,0.8-1.8h1V24h-1c-0.1-0.9-0.4-1.5-0.9-1.9s-1.2-0.5-2.3-0.5h-3.3v4c0,1.2,0.2,1.9,0.6,2.4
			c0.4,0.4,1.1,0.6,2.2,0.6h1.2c1.3,0,2.4-0.2,3.1-0.6c0.7-0.4,1.4-1.2,1.9-2.3h1.1L249.9,29.6z"/>
		<path fill="#FFFFFF" d="M253.8,24.6h1c0.3,1.3,0.7,2.3,1.5,3c0.7,0.7,1.7,1.1,3,1.1c1,0,1.8-0.3,2.5-0.8s1.1-1.2,1.1-1.9
			c0-0.3-0.1-0.5-0.2-0.8c-0.1-0.3-0.4-0.6-0.7-0.9c-0.3-0.3-0.7-0.6-1.2-0.9s-1.1-0.7-1.8-1.1c-0.9-0.5-1.6-0.9-2.2-1.3
			s-1.1-0.8-1.6-1.3c-0.4-0.4-0.6-0.7-0.8-1.1c-0.2-0.4-0.3-0.9-0.3-1.4c0-1.2,0.5-2.2,1.5-3s2.4-1.1,4-1.1c0.8,0,1.7,0.1,2.5,0.3
			c0.9,0.2,1.7,0.6,2.5,1v3.5h-1c-0.1-1.2-0.5-2.1-1.3-2.8c-0.8-0.7-1.7-1-2.9-1c-0.8,0-1.5,0.2-2.1,0.7c-0.6,0.4-0.9,1-0.9,1.6
			c0,0.6,0.3,1.1,0.8,1.6c0.3,0.3,0.6,0.5,1,0.8c0.4,0.3,1,0.6,1.8,1c0.9,0.5,1.7,1,2.3,1.4c0.6,0.4,1.1,0.8,1.5,1.2
			c0.9,0.9,1.3,1.9,1.3,3c0,0.7-0.1,1.3-0.4,1.8c-0.3,0.6-0.7,1-1.2,1.4c-0.5,0.4-1.2,0.7-1.9,0.9c-0.7,0.2-1.5,0.3-2.4,0.3
			c-0.4,0-0.9,0-1.4-0.1c-0.5-0.1-1-0.1-1.6-0.3c-0.5-0.1-1-0.2-1.5-0.4c-0.4-0.1-0.8-0.3-1.1-0.4V24.6z"/>
	</g>
	<g>
		<path fill="#FFFFFF" d="M61.9,55c-0.2-0.5-0.5-0.8-0.9-1.1s-0.8-0.4-1.3-0.4c-0.3,0-0.6,0.1-0.9,0.2c-0.3,0.1-0.6,0.3-0.8,0.5
			s-0.4,0.5-0.5,0.9c-0.1,0.4-0.2,0.8-0.2,1.2c0,0.4,0.1,0.8,0.2,1.1c0.1,0.4,0.3,0.7,0.5,0.9c0.2,0.3,0.5,0.5,0.8,0.6
			c0.3,0.2,0.7,0.2,1.1,0.2c0.5,0,1-0.1,1.3-0.4s0.6-0.6,0.7-1.2h0.3l0,1.4c-0.4,0.1-0.8,0.3-1.2,0.4s-0.9,0.1-1.3,0.1
			c-0.5,0-1-0.1-1.4-0.2s-0.8-0.4-1.1-0.7c-0.3-0.3-0.6-0.6-0.7-1c-0.2-0.4-0.3-0.8-0.3-1.3c0-0.4,0.1-0.8,0.2-1.2
			c0.2-0.4,0.4-0.8,0.7-1.1s0.7-0.6,1.2-0.8c0.5-0.2,1-0.3,1.6-0.3c0.7,0,1.4,0.1,2.2,0.4l0.2,1.5H61.9z"/>
		<path fill="#FFFFFF" d="M66.8,58.2c0,0.3,0.1,0.6,0.2,0.7c0.2,0.1,0.4,0.2,0.8,0.2v0.4h-2.9v-0.4c0.4,0,0.6-0.1,0.8-0.2
			c0.1-0.2,0.2-0.4,0.2-0.7v-3.7c0-0.3-0.1-0.6-0.2-0.7c-0.2-0.1-0.4-0.2-0.7-0.2v-0.4h2.9v0.4c-0.3,0-0.6,0.1-0.7,0.2
			c-0.2,0.1-0.2,0.4-0.2,0.7V56h3.4v-1.6c0-0.3-0.1-0.5-0.2-0.6c-0.2-0.1-0.4-0.2-0.7-0.2v-0.4h2.9v0.4c-0.4,0-0.6,0.1-0.8,0.2
			c-0.1,0.2-0.2,0.4-0.2,0.7v3.6c0,0.3,0.1,0.6,0.2,0.8s0.4,0.2,0.8,0.2v0.4h-2.9v-0.4c0.3,0,0.5-0.1,0.7-0.2
			c0.1-0.2,0.2-0.4,0.2-0.7v-1.7h-3.4V58.2z"/>
		<path fill="#FFFFFF" d="M78.6,57h-2.4l-0.3,0.9c-0.1,0.2-0.1,0.3-0.1,0.5c0,0.2,0.1,0.4,0.2,0.5c0.1,0.1,0.3,0.2,0.6,0.2v0.4h-2.1
			v-0.4c0.2-0.1,0.4-0.2,0.5-0.3c0.1-0.1,0.2-0.4,0.4-0.7l1.9-4.6L77,53.2h1l2.3,5.3c0.1,0.2,0.2,0.4,0.3,0.5
			c0.1,0.1,0.2,0.1,0.4,0.1v0.4h-2.6v-0.4c0.5,0,0.8-0.2,0.8-0.6c0-0.1,0-0.3-0.1-0.4L78.6,57z M77.3,54l-1,2.5h2L77.3,54z"/>
		<path fill="#FFFFFF" d="M85.1,58.3c0,0.3,0.1,0.5,0.2,0.7c0.2,0.1,0.4,0.2,0.7,0.2v0.4h-2.9v-0.4c0.4,0,0.6-0.1,0.7-0.3
			c0.1-0.2,0.2-0.4,0.2-0.8v-3.6c0-0.6-0.3-0.9-0.9-0.9v-0.4h3c0.4,0,0.8,0,1.1,0.1c0.3,0.1,0.5,0.2,0.7,0.3
			c0.2,0.1,0.3,0.3,0.4,0.5c0.1,0.2,0.1,0.4,0.1,0.6c0,0.4-0.1,0.7-0.4,1c-0.3,0.3-0.7,0.5-1.3,0.6l1.3,1.5c0.4,0.4,0.7,0.7,0.9,0.9
			c0.2,0.2,0.4,0.3,0.6,0.3v0.4h-0.7c-0.2,0-0.3,0-0.4,0s-0.2-0.1-0.4-0.2c-0.1-0.1-0.2-0.2-0.4-0.3c-0.1-0.1-0.3-0.3-0.5-0.5
			l-1.2-1.5c-0.1-0.2-0.2-0.3-0.3-0.3s-0.2-0.1-0.4-0.1h-0.3V58.3z M85.9,56.1c0.5,0,0.9-0.1,1.1-0.3s0.4-0.5,0.4-0.9
			c0-0.4-0.1-0.7-0.4-1c-0.3-0.3-0.7-0.4-1.2-0.4h-0.7v2.5H85.9z"/>
		<path fill="#FFFFFF" d="M93.9,53.6h-1c-0.2,0-0.4,0-0.5,0s-0.3,0.1-0.4,0.2c-0.1,0.1-0.2,0.2-0.3,0.3s-0.2,0.3-0.4,0.6H91l0.1-1.5
			h6.6l0.1,1.5h-0.3c-0.1-0.2-0.3-0.4-0.4-0.6s-0.2-0.2-0.3-0.3c-0.1-0.1-0.2-0.1-0.4-0.2s-0.3,0-0.5,0h-1v4.7
			c0,0.3,0.1,0.5,0.2,0.7c0.1,0.1,0.4,0.2,0.8,0.2v0.4h-3v-0.4c0.4,0,0.6-0.1,0.8-0.2s0.2-0.4,0.2-0.7V53.6z"/>
		<path fill="#FFFFFF" d="M105.4,59.5H100v-0.4c0.4,0,0.6-0.1,0.8-0.2c0.2-0.1,0.2-0.4,0.2-0.7v-3.7c0-0.3-0.1-0.6-0.2-0.7
			c-0.1-0.2-0.4-0.2-0.8-0.2v-0.4h5.3v1.4H105c-0.2-0.4-0.4-0.7-0.6-0.8c-0.2-0.1-0.6-0.2-1-0.2H102V56h1.2c0.4,0,0.7-0.1,0.9-0.2
			s0.3-0.4,0.3-0.7h0.4v2.2h-0.4c-0.1-0.3-0.2-0.6-0.4-0.7c-0.2-0.1-0.5-0.2-0.9-0.2H102v1.5c0,0.4,0.1,0.7,0.2,0.9
			c0.2,0.2,0.4,0.2,0.8,0.2h0.5c0.5,0,0.9-0.1,1.2-0.2c0.3-0.2,0.5-0.5,0.7-0.9h0.4L105.4,59.5z"/>
		<path fill="#FFFFFF" d="M110.1,58.3c0,0.3,0.1,0.5,0.2,0.7c0.2,0.1,0.4,0.2,0.7,0.2v0.4h-2.9v-0.4c0.4,0,0.6-0.1,0.7-0.3
			c0.1-0.2,0.2-0.4,0.2-0.8v-3.6c0-0.6-0.3-0.9-0.9-0.9v-0.4h3c0.4,0,0.8,0,1.1,0.1c0.3,0.1,0.5,0.2,0.7,0.3
			c0.2,0.1,0.3,0.3,0.4,0.5c0.1,0.2,0.1,0.4,0.1,0.6c0,0.4-0.1,0.7-0.4,1c-0.3,0.3-0.7,0.5-1.3,0.6l1.3,1.5c0.4,0.4,0.7,0.7,0.9,0.9
			c0.2,0.2,0.4,0.3,0.6,0.3v0.4H114c-0.2,0-0.3,0-0.4,0s-0.2-0.1-0.4-0.2c-0.1-0.1-0.2-0.2-0.4-0.3c-0.1-0.1-0.3-0.3-0.5-0.5
			l-1.2-1.5c-0.1-0.2-0.2-0.3-0.3-0.3s-0.2-0.1-0.4-0.1h-0.3V58.3z M111,56.1c0.5,0,0.9-0.1,1.1-0.3s0.4-0.5,0.4-0.9
			c0-0.4-0.1-0.7-0.4-1c-0.3-0.3-0.7-0.4-1.2-0.4h-0.7v2.5H111z"/>
		<path fill="#FFFFFF" d="M122,59.5h-5.4v-0.4c0.4,0,0.6-0.1,0.8-0.2c0.2-0.1,0.2-0.4,0.2-0.7v-3.7c0-0.3-0.1-0.6-0.2-0.7
			c-0.1-0.2-0.4-0.2-0.8-0.2v-0.4h5.3v1.4h-0.3c-0.2-0.4-0.4-0.7-0.6-0.8c-0.2-0.1-0.6-0.2-1-0.2h-1.5V56h1.2c0.4,0,0.7-0.1,0.9-0.2
			s0.3-0.4,0.3-0.7h0.4v2.2H121c-0.1-0.3-0.2-0.6-0.4-0.7c-0.2-0.1-0.5-0.2-0.9-0.2h-1.3v1.5c0,0.4,0.1,0.7,0.2,0.9
			c0.2,0.2,0.4,0.2,0.8,0.2h0.5c0.5,0,0.9-0.1,1.2-0.2c0.3-0.2,0.5-0.5,0.7-0.9h0.4L122,59.5z"/>
		<path fill="#FFFFFF" d="M125.7,54.5c0-0.3-0.1-0.6-0.2-0.7s-0.4-0.2-0.8-0.2v-0.4h3.6c0.6,0,1.1,0.1,1.5,0.2s0.8,0.4,1.1,0.7
			c0.3,0.3,0.6,0.7,0.7,1c0.1,0.3,0.2,0.7,0.2,1.1c0,0.4-0.1,0.8-0.2,1.1s-0.4,0.7-0.7,1c-0.3,0.3-0.7,0.6-1.1,0.8
			c-0.5,0.2-1,0.3-1.6,0.3h-3.5v-0.4c0.4,0,0.6-0.1,0.8-0.2c0.2-0.1,0.2-0.4,0.2-0.7V54.5z M126.7,58.1c0,0.3,0.1,0.5,0.3,0.7
			c0.2,0.2,0.4,0.3,0.7,0.3h0.5c0.4,0,0.8-0.1,1.1-0.2s0.6-0.3,0.8-0.6s0.4-0.5,0.5-0.8c0.1-0.3,0.2-0.6,0.2-1
			c0-0.4-0.1-0.7-0.2-1.1c-0.1-0.3-0.3-0.7-0.5-0.9c-0.2-0.3-0.6-0.5-1-0.7s-0.8-0.2-1.4-0.2h-0.9V58.1z"/>
		<path fill="#FFFFFF" d="M139,57.6h0.4c0.1,0.5,0.3,0.9,0.6,1.2c0.3,0.3,0.7,0.4,1.1,0.4c0.4,0,0.7-0.1,1-0.3s0.4-0.4,0.4-0.7
			c0-0.1,0-0.2-0.1-0.3c0-0.1-0.1-0.2-0.3-0.4s-0.3-0.2-0.4-0.4c-0.2-0.1-0.4-0.3-0.7-0.4c-0.3-0.2-0.6-0.4-0.8-0.5
			s-0.4-0.3-0.6-0.5c-0.1-0.1-0.2-0.3-0.3-0.4c-0.1-0.2-0.1-0.3-0.1-0.5c0-0.5,0.2-0.9,0.6-1.1c0.4-0.3,0.9-0.4,1.5-0.4
			c0.3,0,0.6,0,1,0.1c0.3,0.1,0.7,0.2,1,0.4V55h-0.4c0-0.5-0.2-0.8-0.5-1.1c-0.3-0.3-0.7-0.4-1.1-0.4c-0.3,0-0.6,0.1-0.8,0.3
			c-0.2,0.2-0.3,0.4-0.3,0.6c0,0.2,0.1,0.4,0.3,0.6c0.1,0.1,0.2,0.2,0.4,0.3c0.2,0.1,0.4,0.2,0.7,0.4c0.4,0.2,0.7,0.4,0.9,0.5
			s0.4,0.3,0.6,0.5c0.3,0.3,0.5,0.7,0.5,1.1c0,0.3-0.1,0.5-0.2,0.7c-0.1,0.2-0.3,0.4-0.5,0.6c-0.2,0.2-0.5,0.3-0.7,0.4
			c-0.3,0.1-0.6,0.1-0.9,0.1c-0.2,0-0.3,0-0.5,0c-0.2,0-0.4-0.1-0.6-0.1s-0.4-0.1-0.6-0.1c-0.2-0.1-0.3-0.1-0.4-0.2V57.6z"/>
		<path fill="#FFFFFF" d="M149,53.2v0.4c-0.4,0-0.7,0.1-0.8,0.2c-0.2,0.1-0.2,0.4-0.2,0.7v2.9c0,0.5,0.2,0.9,0.5,1.2
			s0.8,0.4,1.4,0.4c0.3,0,0.5,0,0.8-0.1c0.2-0.1,0.5-0.2,0.7-0.4s0.3-0.4,0.5-0.6c0.1-0.3,0.2-0.6,0.2-0.9v-2.4
			c0-0.4-0.1-0.6-0.2-0.8c-0.2-0.2-0.4-0.3-0.9-0.3v-0.4h2.5v0.4c-0.3,0-0.5,0.1-0.7,0.2c-0.2,0.2-0.3,0.4-0.3,0.7v2.6
			c0,0.5-0.1,0.8-0.2,1.2c-0.1,0.3-0.3,0.6-0.6,0.8s-0.5,0.3-0.8,0.4c-0.3,0.1-0.7,0.1-1,0.1c-0.5,0-0.9-0.1-1.2-0.2
			s-0.6-0.3-0.8-0.4c-0.2-0.2-0.4-0.4-0.5-0.7c-0.1-0.2-0.2-0.5-0.2-0.8v-3.1c0-0.3-0.1-0.5-0.2-0.7s-0.4-0.2-0.8-0.2v-0.4H149z"/>
		<path fill="#FFFFFF" d="M157.6,58.3c0,0.3,0.1,0.5,0.2,0.7c0.2,0.1,0.4,0.2,0.7,0.2v0.4h-2.9v-0.4c0.4,0,0.6-0.1,0.7-0.3
			c0.1-0.2,0.2-0.4,0.2-0.8v-3.6c0-0.6-0.3-0.9-0.9-0.9v-0.4h3c0.4,0,0.8,0,1.1,0.1c0.3,0.1,0.5,0.2,0.7,0.3
			c0.2,0.1,0.3,0.3,0.4,0.5c0.1,0.2,0.1,0.4,0.1,0.6c0,0.4-0.1,0.7-0.4,1c-0.3,0.3-0.7,0.5-1.3,0.6l1.3,1.5c0.4,0.4,0.7,0.7,0.9,0.9
			c0.2,0.2,0.4,0.3,0.6,0.3v0.4h-0.7c-0.2,0-0.3,0-0.4,0s-0.2-0.1-0.4-0.2c-0.1-0.1-0.2-0.2-0.4-0.3c-0.1-0.1-0.3-0.3-0.5-0.5
			l-1.2-1.5c-0.1-0.2-0.2-0.3-0.3-0.3s-0.2-0.1-0.4-0.1h-0.3V58.3z M158.4,56.1c0.5,0,0.9-0.1,1.1-0.3s0.4-0.5,0.4-0.9
			c0-0.4-0.1-0.7-0.4-1c-0.3-0.3-0.7-0.4-1.2-0.4h-0.7v2.5H158.4z"/>
		<path fill="#FFFFFF" d="M166.5,57.2c0.1,0.2,0.2,0.5,0.4,0.9l0,0.1c0.1-0.2,0.2-0.6,0.4-1l0-0.1l0.8-1.8c0.2-0.5,0.3-0.8,0.3-1.1
			c0-0.2-0.1-0.4-0.2-0.5s-0.3-0.2-0.6-0.2v-0.4h2.2v0.4c-0.2,0.1-0.4,0.2-0.6,0.3c-0.1,0.1-0.1,0.2-0.2,0.3
			c-0.1,0.2-0.2,0.4-0.3,0.7c-0.1,0.3-0.2,0.6-0.3,0.8l-1.1,2.6c-0.1,0.2-0.2,0.4-0.2,0.6c-0.1,0.2-0.1,0.5-0.2,0.7h-0.5
			c0-0.2-0.1-0.3-0.1-0.5s-0.1-0.4-0.2-0.6l-1.9-4.2c-0.1-0.2-0.2-0.3-0.2-0.4s-0.1-0.2-0.2-0.2c-0.1-0.1-0.1-0.1-0.2-0.1
			c-0.1,0-0.1,0-0.2,0v-0.4h2.5v0.4c-0.3,0-0.5,0.1-0.6,0.1c-0.1,0.1-0.2,0.2-0.2,0.3c0,0.2,0.1,0.4,0.2,0.7L166.5,57.2z"/>
		<path fill="#FFFFFF" d="M177.3,59.5h-5.4v-0.4c0.4,0,0.6-0.1,0.8-0.2c0.2-0.1,0.2-0.4,0.2-0.7v-3.7c0-0.3-0.1-0.6-0.2-0.7
			c-0.1-0.2-0.4-0.2-0.8-0.2v-0.4h5.3v1.4h-0.3c-0.2-0.4-0.4-0.7-0.6-0.8c-0.2-0.1-0.6-0.2-1-0.2h-1.5V56h1.2c0.4,0,0.7-0.1,0.9-0.2
			s0.3-0.4,0.3-0.7h0.4v2.2h-0.4c-0.1-0.3-0.2-0.6-0.4-0.7c-0.2-0.1-0.5-0.2-0.9-0.2h-1.3v1.5c0,0.4,0.1,0.7,0.2,0.9
			c0.2,0.2,0.4,0.2,0.8,0.2h0.5c0.5,0,0.9-0.1,1.2-0.2c0.3-0.2,0.5-0.5,0.7-0.9h0.4L177.3,59.5z"/>
		<path fill="#FFFFFF" d="M183.6,58.3c0,0.6,0.3,0.9,0.9,0.9v0.4h-2.8v-0.4c0.3,0,0.5-0.1,0.7-0.2c0.2-0.1,0.2-0.4,0.2-0.7v-1.4
			l-1.9-2.8c-0.1-0.2-0.2-0.3-0.4-0.3c-0.1-0.1-0.3-0.1-0.5-0.1v-0.4h2.8v0.4c-0.5,0-0.7,0.1-0.7,0.4c0,0.1,0.1,0.3,0.2,0.4l1.4,2
			l1.1-1.6c0.2-0.2,0.2-0.5,0.2-0.7c0-0.4-0.2-0.6-0.7-0.6v-0.4h2.3v0.4c-0.2,0-0.4,0.1-0.5,0.2s-0.3,0.3-0.6,0.7l-1.7,2.4V58.3z"/>
		<path fill="#FFFFFF" d="M188.5,55c0.2-0.4,0.4-0.8,0.7-1.1c0.3-0.3,0.7-0.5,1.1-0.6s0.8-0.2,1.2-0.2c0.5,0,0.9,0.1,1.3,0.2
			c0.4,0.2,0.7,0.4,1,0.7c0.3,0.3,0.5,0.6,0.7,1.1c0.2,0.4,0.2,0.8,0.2,1.3c0,0.4-0.1,0.9-0.3,1.3c-0.2,0.4-0.4,0.7-0.7,1
			c-0.3,0.3-0.7,0.5-1.1,0.7c-0.4,0.2-0.9,0.2-1.3,0.2c-0.4,0-0.8-0.1-1.2-0.2c-0.4-0.2-0.7-0.4-1-0.7c-0.3-0.3-0.5-0.6-0.7-1
			c-0.2-0.4-0.2-0.8-0.2-1.3C188.2,55.9,188.3,55.4,188.5,55z M189.4,57.2c0.1,0.4,0.2,0.7,0.4,1c0.2,0.3,0.4,0.5,0.7,0.7
			c0.3,0.2,0.6,0.3,1,0.3c0.6,0,1.1-0.2,1.5-0.7c0.4-0.5,0.6-1.1,0.6-1.8c0-0.4,0-0.8-0.1-1.2s-0.2-0.7-0.4-1
			c-0.2-0.3-0.4-0.6-0.7-0.7s-0.6-0.3-1-0.3c-0.6,0-1.1,0.2-1.4,0.7c-0.4,0.4-0.6,1-0.6,1.8C189.3,56.4,189.4,56.8,189.4,57.2z"/>
		<path fill="#FFFFFF" d="M199.3,58.3c0,0.3,0.1,0.5,0.2,0.7c0.2,0.1,0.4,0.2,0.7,0.2v0.4h-2.9v-0.4c0.4,0,0.6-0.1,0.7-0.3
			c0.1-0.2,0.2-0.4,0.2-0.8v-3.6c0-0.6-0.3-0.9-0.9-0.9v-0.4h3c0.4,0,0.8,0,1.1,0.1c0.3,0.1,0.5,0.2,0.7,0.3
			c0.2,0.1,0.3,0.3,0.4,0.5c0.1,0.2,0.1,0.4,0.1,0.6c0,0.4-0.1,0.7-0.4,1c-0.3,0.3-0.7,0.5-1.3,0.6l1.3,1.5c0.4,0.4,0.7,0.7,0.9,0.9
			c0.2,0.2,0.4,0.3,0.6,0.3v0.4h-0.7c-0.2,0-0.3,0-0.4,0s-0.2-0.1-0.4-0.2c-0.1-0.1-0.2-0.2-0.4-0.3c-0.1-0.1-0.3-0.3-0.5-0.5
			l-1.2-1.5c-0.1-0.2-0.2-0.3-0.3-0.3s-0.2-0.1-0.4-0.1h-0.3V58.3z M200.2,56.1c0.5,0,0.9-0.1,1.1-0.3s0.4-0.5,0.4-0.9
			c0-0.4-0.1-0.7-0.4-1c-0.3-0.3-0.7-0.4-1.2-0.4h-0.7v2.5H200.2z"/>
		<path fill="#FFFFFF" d="M206.1,57.6h0.4c0.1,0.5,0.3,0.9,0.6,1.2c0.3,0.3,0.7,0.4,1.1,0.4c0.4,0,0.7-0.1,1-0.3s0.4-0.4,0.4-0.7
			c0-0.1,0-0.2-0.1-0.3c0-0.1-0.1-0.2-0.3-0.4s-0.3-0.2-0.4-0.4c-0.2-0.1-0.4-0.3-0.7-0.4c-0.3-0.2-0.6-0.4-0.8-0.5
			s-0.4-0.3-0.6-0.5c-0.1-0.1-0.2-0.3-0.3-0.4c-0.1-0.2-0.1-0.3-0.1-0.5c0-0.5,0.2-0.9,0.6-1.1c0.4-0.3,0.9-0.4,1.5-0.4
			c0.3,0,0.6,0,1,0.1c0.3,0.1,0.7,0.2,1,0.4V55h-0.4c0-0.5-0.2-0.8-0.5-1.1c-0.3-0.3-0.7-0.4-1.1-0.4c-0.3,0-0.6,0.1-0.8,0.3
			c-0.2,0.2-0.3,0.4-0.3,0.6c0,0.2,0.1,0.4,0.3,0.6c0.1,0.1,0.2,0.2,0.4,0.3c0.2,0.1,0.4,0.2,0.7,0.4c0.4,0.2,0.7,0.4,0.9,0.5
			s0.4,0.3,0.6,0.5c0.3,0.3,0.5,0.7,0.5,1.1c0,0.3-0.1,0.5-0.2,0.7c-0.1,0.2-0.3,0.4-0.5,0.6c-0.2,0.2-0.5,0.3-0.7,0.4
			c-0.3,0.1-0.6,0.1-0.9,0.1c-0.2,0-0.3,0-0.5,0c-0.2,0-0.4-0.1-0.6-0.1s-0.4-0.1-0.6-0.1c-0.2-0.1-0.3-0.1-0.4-0.2V57.6z"/>
	</g>
	
		<line fill="none" stroke="#FFFFFF" stroke-width="1.187" stroke-linecap="round" stroke-linejoin="round" stroke-dasharray="0,2.37" x1="3.6" y1="42.1" x2="263.1" y2="42.1"/>
	
		<line fill="none" stroke="#FFFFFF" stroke-width="1.187" stroke-linecap="round" stroke-linejoin="round" stroke-dasharray="0,2.37" x1="3.6" y1="0.6" x2="263.1" y2="0.6"/>
</g>
<g>
</g>
<g>
</g>
<g>
</g>
<g>
</g>
<g>
</g>
<g>
</g>
</svg>
