<?xml version="1.0" encoding="utf-8"?>
<!-- Generator: Adobe Illustrator 18.1.0, SVG Export Plug-In . SVG Version: 6.00 Build 0)  -->
<svg version="1.1" id="Layer_1" xmlns="http://www.w3.org/2000/svg" xmlns:xlink="http://www.w3.org/1999/xlink" x="0px" y="0px"
	 viewBox="-283.7 285 64 32" enable-background="new -283.7 285 64 32" xml:space="preserve">
<path fill="#4E2A5D" d="M-280,295h24c1.1,0,2-0.9,2-2s-0.9-2-2-2h-24c-1.1,0-2,0.9-2,2S-281.1,295-280,295z M-256,299h-24
	c-1.1,0-2,0.9-2,2s0.9,2,2,2h24c1.1,0,2-0.9,2-2S-254.9,299-256,299z M-256,307h-24c-1.1,0-2,0.9-2,2s0.9,2,2,2h24c1.1,0,2-0.9,2-2
	S-254.9,307-256,307z"/>
<path fill="#4E2A5D" d="M-224.5,292l-2.2-2.2l-8.8,8.8l-8.8-8.8l-2.2,2.2l8.8,8.8l-8.8,8.8l2.2,2.2l8.8-8.8l8.8,8.8l2.2-2.2
	l-8.8-8.8L-224.5,292z"/>
<path fill="none" d="M-283-16.5h499.6v499.6H-283V-16.5z"/>
</svg>
