<?xml version="1.0" encoding="utf-8"?>
<!-- Generator: Adobe Illustrator 18.1.0, SVG Export Plug-In . SVG Version: 6.00 Build 0)  -->
<svg version="1.1" id="Layer_1" xmlns="http://www.w3.org/2000/svg" xmlns:xlink="http://www.w3.org/1999/xlink" x="0px" y="0px"
	 viewBox="0 0 9 1" enable-background="new 0 0 9 1" xml:space="preserve">
<path fill="#4E2A5D" d="M6,0.5C6,0.2,6.2,0,6.5,0l0,0C6.8,0,7,0.2,7,0.5l0,0C7,0.8,6.8,1,6.5,1l0,0C6.2,1,6,0.8,6,0.5z M3,0.5
	C3,0.2,3.2,0,3.5,0l0,0C3.8,0,4,0.2,4,0.5l0,0C4,0.8,3.8,1,3.5,1l0,0C3.2,1,3,0.8,3,0.5z M0,0.5C0,0.2,0.2,0,0.5,0l0,0
	C0.8,0,1,0.2,1,0.5l0,0C1,0.8,0.8,1,0.5,1l0,0C0.2,1,0,0.8,0,0.5z"/>
<g>
</g>
<g>
</g>
<g>
</g>
<g>
</g>
<g>
</g>
<g>
</g>
</svg>
